<?xml version="1.0" encoding="UTF-8"?>
<svg xmlns="http://www.w3.org/2000/svg" height="65" width="48">
  <path d="M33.408 27.052L22.568 38.55c-.637.676-1.766.174-1.697-.755l.643-8.692a.58.58 0 0 0-.577-.625h-5.63c-.866 0-1.31-1.042-.713-1.671l11.15-11.775c.641-.677 1.774-.166 1.695.765l-.755 8.953a.581.581 0 0 0 .578.631h5.43c.866 0 1.31 1.04.716 1.67M48 24.872C48 11.55 37.256.753 24 .753S0 11.552 0 24.871c0 5.681 1.96 10.9 5.23 15.022h-.003s6.385 8.673 6.618 9.096h.005a3.8 3.8 0 0 0 3.194 1.764h18.497c1.48 0 2.757-.868 3.385-2.115l.014-.001 6.156-9.163a23.572 23.572 0 0 0 1.541-2.293l.037-.055h-.005A24.08 24.08 0 0 0 48 24.871M33.504 53.76l-2.648-.007H17.144l-2.649.007c-.87.002-1.551.721-1.491 1.57.22 3.105 1.566 9.71 9.078 9.414.34-.014.67-.155.923-.377a1.49 1.49 0 0 1 .994-.372c.357 0 .714.122.995.372.253.222.583.363.923.377 7.512.295 8.86-6.31 9.08-9.413.06-.85-.623-1.57-1.493-1.571" fill="#f44e21" fill-rule="evenodd"></path>
</svg>
