<?xml version="1.0" encoding="UTF-8"?>
<svg xmlns="http://www.w3.org/2000/svg" height="52" width="58">
  <g fill="#056ff0" fill-rule="evenodd">
    <path d="M44.46 35.84H13.605V9.355c3.856-.413 9.17-.97 15.432-.97 6.253 0 11.568.557 15.425.97zm7.715 1.685V6.154c0-1.907-1.377-3.457-3.241-3.764-.377-.062-9.317-1.517-19.887-1.517-10.58 0-19.54 1.455-19.917 1.517-1.865.307-3.242 1.857-3.242 3.764v31.378C2.031 38.977.101 40.616.101 44.28c0 6.985 6.477 7.101 28.931 7.101 22.457 0 28.92-.116 28.92-7.101 0-3.67-1.92-5.308-5.777-6.755z"></path>
    <path d="M21.596 14.74a.937.937 0 0 0-.27.755c.549 5.594 3.672 11.804 3.803 12.065.154.314.475.51.822.51.01 0 .023 0 .033-.002a.929.929 0 0 0 .822-.57l1.205-2.884c2.15 1.737 4.234 3.22 4.712 3.351.734.206 1.1.122 1.59-.375.485-.503.651-.956.368-1.627-.16-.386-1.657-2.549-3.306-4.73l2.881-1.237a.943.943 0 0 0 .565-.826.936.936 0 0 0-.505-.863c-.252-.129-6.238-3.172-11.967-3.828a.93.93 0 0 0-.753.26"></path>
  </g>
</svg>
