<?xml version="1.0" encoding="UTF-8"?>
<svg xmlns="http://www.w3.org/2000/svg" width="98" height="62">
  <path d="M29.492 44.888c-2.682 0-4.855-2.187-4.855-4.888 0-2.7 2.173-4.89 4.855-4.89 2.681 0 4.855 2.19 4.855 4.89 0 2.7-2.174 4.888-4.855 4.888m-14.563 0c-2.68 0-4.853-2.187-4.853-4.888 0-2.7 2.173-4.89 4.853-4.89 2.681 0 4.855 2.19 4.855 4.89 0 2.7-2.174 4.888-4.855 4.888M46.41 58.245c-1.687-1.96-2.725-4.503-2.725-7.244V39.056c0-.167-.038-.317-.07-.47C42.887 27.098 33.432 18 21.842 18 9.779 18 0 27.85 0 40c0 11.674 9.034 21.199 20.44 21.928.152.033.3.072.465.072h23.93c1.941 0 2.848-2.277 1.575-3.755m22.098-31.357c2.682 0 4.855-2.187 4.855-4.888 0-2.7-2.173-4.89-4.855-4.89-2.681 0-4.855 2.19-4.855 4.89 0 2.7 2.174 4.888 4.855 4.888m14.563 0c2.68 0 4.853-2.187 4.853-4.888 0-2.7-2.173-4.89-4.853-4.89-2.681 0-4.855 2.19-4.855 4.89 0 2.7 2.174 4.888 4.855 4.888M51.59 40.245c1.687-1.96 2.725-4.503 2.725-7.244V21.056c0-.167.038-.317.07-.47C55.113 9.098 64.568 0 76.158 0 88.221 0 98 9.85 98 22c0 11.674-9.034 21.199-20.44 21.928-.152.033-.3.072-.465.072h-23.93c-1.941 0-2.848-2.277-1.575-3.755" fill="#056FF0" fill-rule="evenodd"></path>
</svg>
