<?xml version="1.0" encoding="UTF-8"?>
<svg xmlns="http://www.w3.org/2000/svg" width="49" height="68">
  <g fill="#F44E21" fill-rule="evenodd">
    <path d="M39.722 48.188c-.036.545-.445 1.052-.987 1.052h-28.54c-.543 0-.953-.507-.987-1.052-.826-13.432-.895-24.846.063-37.679.04-.536.452-.97.984-1.034 9.658-1.139 18.76-1.139 28.42 0 .533.065.945.498.985 1.034 1.098 14.39.924 23.468.062 37.679M24.534 63.102c-2.717 0-4.915-2.209-4.915-4.934a4.917 4.917 0 0 1 4.915-4.924 4.92 4.92 0 0 1 4.914 4.924c0 2.725-2.205 4.934-4.914 4.934M48.186 7.503c-.192-3.2-2.604-5.818-5.758-6.247a133.643 133.643 0 0 0-35.926 0C3.348 1.686.936 4.303.745 7.503c-1.018 17.139-.97 35.943 0 52.278.191 3.203 2.603 5.82 5.757 6.247 5.967.808 11.999.996 17.963.996 5.967 0 11.996-.188 17.963-.996 3.154-.427 5.566-3.044 5.758-6.247a443.46 443.46 0 0 0 0-52.278"></path>
    <path d="M26.251 19.686l2.41 3.786c.202.317.517.545.88.64l4.346 1.122a1.483 1.483 0 0 1 .773 2.38l-2.855 3.462c-.24.29-.36.66-.336 1.035l.274 4.48a1.483 1.483 0 0 1-2.024 1.47l-4.175-1.646a1.483 1.483 0 0 0-1.088 0l-4.175 1.646a1.483 1.483 0 0 1-2.024-1.47l.274-4.48a1.483 1.483 0 0 0-.336-1.035l-2.855-3.462a1.483 1.483 0 0 1 .773-2.38l4.345-1.123a1.48 1.48 0 0 0 .88-.639l2.411-3.786a1.483 1.483 0 0 1 2.502 0z" fill-rule="nonzero"></path>
  </g>
</svg>
