<svg width="27" height="27" xmlns="http://www.w3.org/2000/svg"><path d="M20.52 13.5c1.736-1.782 3.49-3.546 5.189-5.363 1.777-1.898 1.707-4.875-.132-6.714-1.84-1.84-4.816-1.909-6.713-.132-1.817 1.7-3.582 3.453-5.364 5.19-1.782-1.737-3.546-3.49-5.363-5.19-1.898-1.777-4.875-1.707-6.714.132-1.84 1.84-1.909 4.816-.132 6.714 1.7 1.817 3.453 3.581 5.19 5.363-1.737 1.782-3.49 3.547-5.19 5.364-1.777 1.897-1.707 4.874.132 6.713 1.84 1.84 4.816 1.91 6.714.132 1.817-1.7 3.581-3.453 5.363-5.189 1.782 1.736 3.547 3.49 5.364 5.189 1.897 1.777 4.874 1.707 6.713-.132 1.84-1.84 1.91-4.816.132-6.713-1.7-1.817-3.453-3.582-5.189-5.364" fill="red" fill-rule="evenodd"/></svg>