<?xml version="1.0"?>
<svg xmlns="http://www.w3.org/2000/svg" xmlns:xlink="http://www.w3.org/1999/xlink" version="1.1" id="Capa_1" x="0px" y="0px" viewBox="0 0 42 42" style="enable-background:new 0 0 42 42;" xml:space="preserve" width="512px" height="512px" class=""><g><path d="M37.059,8H26H16H4.941C2.224,8,0,10.282,0,13s2.224,5,4.941,5H16h10h11.059  C39.776,18,42,15.718,42,13S39.776,8,37.059,8z" data-original="#7383BF" class="active-path" data-old_color="#7383BF" fill="#FCE46F"/><path d="M37.059,24H26H16H4.941C2.224,24,0,26.282,0,29s2.224,5,4.941,5H16h10h11.059  C39.776,34,42,31.718,42,29S39.776,24,37.059,24z" data-original="#7383BF" class="active-path" data-old_color="#7383BF" fill="#FCE46F"/></g> </svg>
