<svg width="25" height="18" xmlns="http://www.w3.org/2000/svg"><path d="M10.884 9L9.402 7.586a1.066 1.066 0 0 1 0-1.543 1.17 1.17 0 0 1 1.616 0L12.5 7.457l1.482-1.414a1.17 1.17 0 0 1 1.616 0 1.066 1.066 0 0 1 0 1.543L14.116 9l1.482 1.414a1.066 1.066 0 0 1 0 1.543 1.17 1.17 0 0 1-1.616 0L12.5 10.543l-1.482 1.414a1.17 1.17 0 0 1-1.616 0 1.066 1.066 0 0 1 0-1.543L10.884 9zm1.616 5.5c3.068 0 5.556-2.463 5.556-5.5S15.568 3.5 12.5 3.5 6.945 5.963 6.945 9s2.487 5.5 5.555 5.5zm0-14.5c5.535 0 10.276 3.37 12.332 8.177a2.103 2.103 0 0 1 0 1.646C22.776 14.63 18.035 18 12.5 18 6.965 18 2.224 14.63.167 9.823a2.113 2.113 0 0 1 0-1.646C2.224 3.37 6.965 0 12.5 0z" fill="#056FF0" fill-rule="evenodd"/></svg>