<?xml version="1.0"?>
<svg xmlns="http://www.w3.org/2000/svg" id="color" enable-background="new 0 0 24 24" height="512px" viewBox="0 0 24 24" width="512px" class="hovered-paths"><g><g fill="#ffcc80"><path d="m18.914 13.176c-.096 0-.181.011-.276.033-.449.124-.583.434-.669.534.096-.172-1.42 2.537-1.477 2.637-.392.715.085 1.635.924 1.635.973 0 1.007-.941 2.412-3.204.297-.523.127-1.188-.382-1.493-.171-.098-.352-.142-.532-.142z" data-original="#000000" class="hovered-path active-path" data-old_color="#000000" fill="#FFFFFF"/><path d="m11.01 10.386-1.297-8.893c-.074-.534-.51-.915-1.03-.915-.308 0-.595.131-.797.371-.191.24-.287.556-.234.861l1.232 8.577h2.126z" data-original="#000000" class="hovered-path active-path" data-old_color="#000000" fill="#FFFFFF"/><path d="m14.25 11.149 1.2-9.939c.032-.316-.074-.632-.297-.872-.212-.229-.521-.349-.839-.327-.51.044-.924.447-.977.97l-1.105 9.405c.378.061 1.47-.267 2.018.763z" data-original="#000000" class="hovered-path active-path" data-old_color="#000000" fill="#FFFFFF"/><path d="m20.497 3.586c-.003.009-.006.015-.009.024.004-.012.008-.021.009-.024z" data-original="#000000" class="hovered-path active-path" data-old_color="#000000" fill="#FFFFFF"/><path d="m20.488 3.61c-.003.008-.006.017-.01.027.015-.041.02-.056.019-.051.042-.12.064-.229.064-.349 0-.436-.287-.839-.712-1.003-.542-.207-1.147.055-1.339.589-3.039 8.433-3.237 9.118-3.336 9.22-.16.328-.607.336-.776.163 0 0 0 0-.011 0-.036.101-.057.392-.382.708-.977 1.013-2.242 1.635-3.602 1.787 1.455 1.253 2.56 2.921 3.166 4.773.096.283-.053.599-.329.698-.287.087-.584-.065-.68-.349-.648-1.994-1.944-3.738-3.644-4.904-.127-.122-.758-.324-.606-.872.064-.229.276-.392.51-.392.423-.065 2.577.386 4.441-1.504.226-.247.077-.676-.276-.676h-5.056c-.51 0-.956.338-1.116.828l-1.062 3.258c-.884 2.721 1.356 4.257 2.592 6.484.308.458.478 1.003.478 1.558v.403h8.234c.022-.159-.141-1.128.616-2.049.115-.19 1.66-1.618 1.7-4.141-.083.101-.404.931-1.413 1.21-1.753.529-3.355-1.489-2.39-3.193l1.402-2.463c2.38-6.603 3.203-8.886 3.442-9.55.019-.053.044-.121.076-.21zm-5.898 8.7c-.007-.002-.012-.004-.018-.006.006.003.012.004.018.006z" data-original="#000000" class="hovered-path active-path" data-old_color="#000000" fill="#FFFFFF"/></g></g> </svg>
