<svg height="470" width="341" xmlns="http://www.w3.org/2000/svg"><path d="M194.947 336.254l33.086 19.014c2.546 1.464 4.465 3.937 4.872 6.838.45 3.236-.734 6.257-2.924 8.275l-31.372 28.883c-2.424 2.234-3.738 5.54-3.11 8.768a9.413 9.413 0 0 0 5.848 7.029l17.38 6.729c3.338 1.292 5.886 4.255 6.229 7.803.41 4.244-1.94 7.961-5.517 9.552l-67.928 30.25c-2.38 1.06-5.26.744-7.113-1.079-2.738-2.692-2.49-6.82.084-9.175l16.604-15.195c2.49-2.279 3.817-5.686 3.106-8.979-.73-3.394-3.142-5.945-6.181-6.976l-19.367-6.581c-2.77-.942-5.121-2.985-6.089-5.731-1.08-3.067-.53-6.244 1.195-8.647l48.855-68.115c2.81-3.92 8.15-5.07 12.342-2.663zM19.039 290h47.946c2.92 0 5.812 1.188 7.601 3.505 1.987 2.57 2.47 5.764 1.595 8.588l-16.08 51.914c-.97 3.133-.451 6.644 1.695 9.122 2.216 2.557 5.44 3.644 8.515 3.168l27.672-4.261c3.507-.541 7.17.752 9.232 3.65 2.46 3.464 2.293 7.842.015 10.994l-52.812 73.07c-1.861 2.575-5.154 3.9-8.178 2.937-4.05-1.288-6.033-5.456-4.857-9.211l8.636-27.586c1.003-3.207.444-6.81-1.803-9.304-2.317-2.568-5.653-3.577-8.777-2.959l-28.03 5.534c-2.847.562-5.89-.033-8.092-1.932-2.449-2.112-3.557-5.126-3.274-8.06L9.775 298.43c.462-4.78 4.471-8.429 9.264-8.429zM202.49 1.403l88.953 36.511c5.423 2.223 9.878 6.625 11.437 12.266 1.734 6.267.198 12.532-3.578 17.088l-69.337 83.708c-4.184 5.055-5.897 11.934-3.8 18.148 2.164 6.417 7.32 10.878 13.388 12.345l54.584 13.191c6.92 1.673 12.733 6.854 14.348 13.777 1.93 8.277-1.71 16.246-8.338 20.336L146.56 323.606c-5.415 3.342-12.533 3.282-17.412-.797-6.536-5.464-7.04-14.68-2.003-20.724l37.017-44.412c4.303-5.163 6.008-12.246 3.733-18.568-2.341-6.51-7.766-10.915-14.03-12.155L97.65 215.835c-5.712-1.13-10.905-4.545-13.544-9.73-2.937-5.769-2.698-12.19.06-17.393l94.72-178.784c4.496-8.486 14.712-12.174 23.603-8.525zm108.37 282.6l26.206 15.212c2.017 1.17 3.537 3.15 3.86 5.47.358 2.588-.582 5.005-2.318 6.62l-24.846 23.108c-1.921 1.786-2.962 4.431-2.464 7.013.514 2.666 2.313 4.716 4.63 5.622l13.767 5.384c2.645 1.032 4.664 3.404 4.936 6.243.32 3.395-1.536 6.368-4.372 7.641l-53.804 24.2c-1.885.847-4.166.596-5.634-.861-2.17-2.157-1.973-5.458.066-7.342l13.151-12.156c1.973-1.824 3.023-4.549 2.462-7.185-.58-2.713-2.489-4.755-4.896-5.581l-15.343-5.264c-2.19-.753-4.054-2.387-4.822-4.584-.854-2.453-.417-4.994.947-6.917l38.697-54.492a7.416 7.416 0 0 1 9.777-2.131z" fill-rule="evenodd" opacity=".1"/></svg>