<svg height="436" width="522" xmlns="http://www.w3.org/2000/svg"><path d="M289.348 227.385c-11.526 13.74-22.707 27.77-34.657 41.113-9.326 10.365-22.445 15.314-32.493 4.607-7.323-7.832-14.753-23.417-11.73-31.787 15.485-42.802 47.048-74.004 83.404-99.878 5.042-3.602 19.244-.356 25.21 4.525 13.075 10.764 15.442 26.31 5.174 40.56-10.451 14.516-22.81 27.642-34.315 41.357zM95.153 120.025c-11.527 13.74-22.707 27.77-34.657 41.113-9.326 10.365-22.445 15.314-32.493 4.607-7.324-7.832-14.753-23.417-11.731-31.787C31.758 91.156 63.321 59.954 99.677 34.08c5.042-3.602 19.244-.356 25.21 4.526 13.075 10.763 15.442 26.31 5.173 40.558-10.45 14.517-22.809 27.643-34.314 41.358zm305.367-24.66c-7.95 12.39-11.974 24.466-20.358 30.193-8.88 6.067-23.074 10.235-32.764 7.477-7.108-2.02-15.852-17.252-14.79-25.347 2.094-15.751 9.036-31.507 16.882-45.58 7.316-13.09 18.733-23.788 27.826-35.932 10.114-13.513 20.892-22.396 37.88-10.111 16.546 11.956 22.318 30.28 11.914 46.95-7.964 12.757-19.15 23.48-26.59 32.35zM68 286.179c-7.95 12.39-11.973 24.465-20.358 30.192-8.88 6.067-23.074 10.235-32.763 7.477C7.77 321.827-.974 306.595.089 298.5c2.093-15.751 9.035-31.507 16.881-45.58 7.316-13.09 18.733-23.788 27.826-35.933 10.114-13.512 20.892-22.395 37.88-10.11 16.546 11.956 22.318 30.28 11.914 46.95-7.963 12.757-19.15 23.48-26.59 32.35zm115.346-88.943c-7.95 12.39-11.973 24.465-20.357 30.192-8.88 6.067-23.075 10.235-32.764 7.477-7.109-2.02-15.853-17.253-14.79-25.347 2.094-15.752 9.035-31.507 16.881-45.58 7.317-13.09 18.733-23.788 27.826-35.933 10.114-13.513 20.893-22.395 37.88-10.11 16.546 11.956 22.318 30.28 11.914 46.95-7.963 12.756-19.15 23.48-26.59 32.35zm215.139 88.515c-7.95 12.39-11.973 24.465-20.358 30.193-8.88 6.067-23.074 10.235-32.764 7.476-7.108-2.02-15.852-17.252-14.79-25.346 2.094-15.752 9.036-31.508 16.882-45.58 7.316-13.09 18.733-23.788 27.826-35.933 10.114-13.513 20.892-22.396 37.88-10.111 16.546 11.956 22.318 30.28 11.914 46.95-7.963 12.757-19.15 23.48-26.59 32.351zm101.912-144.953c-9.568 12.786-18.17 26.49-29 38.113-9.868 10.59-26.025 15.525-35.983 4.79-7.403-7.96-12.096-27.247-7.48-35.813 16.475-30.503 36.334-59.413 57.161-87.22 12.1-16.164 31.433-10.994 35.688 9.052 2.37 11.12 1.144 24.173-2.511 34.992-4.183 12.428-12.801 23.378-19.492 34.972.543.385 1.074.728 1.617 1.114zM269.255 387.093c-9.567 12.786-18.17 26.49-29 38.114-9.868 10.59-26.025 15.524-35.983 4.789-7.403-7.96-12.096-27.247-7.48-35.813 16.475-30.503 36.334-59.412 57.161-87.22 12.1-16.163 31.433-10.994 35.688 9.052 2.37 11.12 1.144 24.173-2.51 34.992-4.184 12.428-12.802 23.378-19.493 34.972.543.386 1.074.729 1.617 1.114zM274.985.004c3.952 2.926 15.866 7.694 19.938 16.12 3.203 6.67-1.348 18.695-5.658 26.71-7.005 12.99-16.914 24.43-25.057 36.863-12.842 19.69-27.81 24.195-48.705 14.072-19.788-9.537-22.961-20.01-13.053-43.152C214.904 21.537 243.163-.347 274.985.004zm-113 288c3.952 2.926 15.866 7.694 19.938 16.12 3.203 6.67-1.348 18.695-5.658 26.71-7.005 12.99-16.914 24.43-25.057 36.863-12.842 19.69-27.81 24.195-48.705 14.072-19.788-9.537-22.961-20.01-13.053-43.152 12.454-29.08 40.713-50.964 72.535-50.613z" fill="#282d39" fill-rule="evenodd" opacity=".1"/></svg>