<?xml version="1.0" encoding="UTF-8"?>
<svg xmlns="http://www.w3.org/2000/svg" xmlns:xlink="http://www.w3.org/1999/xlink" id="homepage-hero" width="350.80307" height="312.77816" viewBox="0 0 350.80307 312.77816">
  <defs>
    <style>
      .cls-1 {
        fill: none;
      }

      .cls-12, .cls-2 {
        fill: #282d39;
      }

      .cls-11, .cls-18, .cls-2 {
        opacity: 0.1;
      }

      .cls-11, .cls-2 {
        isolation: isolate;
      }

      .cls-3 {
        fill: #1ed28c;
      }

      .cls-4 {
        opacity: 0.5;
      }

      .cls-5 {
        fill: #fff;
      }

      .cls-6 {
        fill: #1eaa8c;
      }

      .cls-7 {
        clip-path: url(#clip-path);
      }

      .cls-8 {
        fill: #292c38;
      }

      .cls-9 {
        fill: #434350;
      }

      .cls-10 {
        fill: #09f;
      }

      .cls-13 {
        fill: #eaeadd;
        fill-rule: evenodd;
      }

      .cls-14 {
        fill: #df006b;
      }

      .cls-15 {
        fill: #ff995f;
      }

      .cls-16 {
        fill: #fcf500;
      }

      .cls-17 {
        fill: #024083;
      }

      .cls-19 {
        fill: #144e8c;
      }

      .cls-20 {
        fill: #faf8e2;
      }

      .cls-21 {
        fill: #003f63;
      }

      .cls-22 {
        opacity: 0.16;
      }

      .cls-23 {
        fill: #202334;
      }

      .cls-24 {
        fill: #b7b7bd;
      }

      .cls-25 {
        fill: #fc0;
      }

      .cls-26 {
        opacity: 0.85;
      }
    </style>
    <clipPath id="clip-path">
      <ellipse class="cls-1" cx="176.60247" cy="176.73687" rx="48.59082" ry="48.30666"></ellipse>
    </clipPath>
  </defs>
  <title>invididuals-hero</title>
  <ellipse class="cls-2" cx="178.56" cy="291.42952" rx="115.10846" ry="6.03391"></ellipse>
  <g>
    <g id="arms-right">
      <g id="arms-6">
        <path class="cls-3" d="M298.93155,225.59136a57.23168,57.23168,0,0,1-27.1205-6.26362c-27.38034-14.558-52.42258-9.73887-52.672-9.68824a5.53532,5.53532,0,0,1-2.233-10.84305c1.171-.24289,29.04255-5.758,60.10228,10.75656,26.70788,14.20081,65.21758-6.52129,65.603-6.73229a5.53541,5.53541,0,0,1,5.3108,9.71383C346.61542,213.2488,323.65217,225.58992,298.93155,225.59136Z"></path>
      </g>
      <g id="arms-5">
        <path class="cls-3" d="M289.96911,185.70684a44.73681,44.73681,0,0,1-18.21806-4.03653c-15.038-6.66525-24.9617-8.54639-30.63864-8.95091-6.03209-.43047-8.58568.67894-8.61073.69047a1.53832,1.53832,0,0,0,.22-.11514l-5.42612-9.64968c.97823-.5501,4.77655-2.32692,12.62509-2.07141,9.88536.32,22.10377,3.67633,36.31629,9.97563,12.11751,5.371,23.955,3.68048,35.18365-5.02466,8.99867-6.97644,16.00322-17.28236,19.55793-24.601a5.53531,5.53531,0,0,1,9.95815,4.83673c-1.99015,4.09743-9.51093,18.26293-22.73316,28.51352C309.25693,182.20979,299.70744,185.70612,289.96911,185.70684Z"></path>
      </g>
      <g id="arms-4">
        <path class="cls-3" d="M259.12127,147.8004c-12.68455,0-24.279-6.9222-24.87106-7.28095a5.53533,5.53533,0,0,1,5.73928-9.46679c.12667.076,13.78332,8.16459,24.56169,4.94,4.40987-1.3195,7.73232-4.41059,10.15708-9.44967q1.17-2.43144,2.19358-4.57691c5.22035-10.91674,8.09612-16.93027,12.44905-21.42789,4.805-4.96466,10.9099-7.36384,19.675-10.45745a5.53535,5.53535,0,1,1,3.68444,10.43961c-8.49955,2.99974-12.51841,4.73511-15.40463,7.717-3.09848,3.20154-5.69784,8.63721-10.41637,18.50473q-1.03328,2.16061-2.2053,4.60141c-3.80715,7.91142-9.53129,13.04943-17.01333,15.2713A29.983,29.983,0,0,1,259.12127,147.8004Z"></path>
      </g>
    </g>
    <g id="arms-left">
      <g id="arm-3">
        <path class="cls-3" d="M23.52293,255.68385a5.54206,5.54206,0,0,1-5.00413-7.9143c.5802-1.22851,14.68678-30.15214,56.33982-35.81358,34.64183-4.7088,41.541-16.64522,41.60656-16.76522a1.51345,1.51345,0,0,0-.08145.167l10.05546,4.63078c-.811,1.76114-9.10678,17.3665-50.08953,22.93713-14.88372,2.023-27.44106,7.59682-37.32354,16.56665a48.68418,48.68418,0,0,0-10.5079,13.028A5.51589,5.51589,0,0,1,23.52293,255.68385Z"></path>
      </g>
      <g id="arm-2">
        <path class="cls-3" d="M76.52678,190.17005c-11.55748,0-23.60327-2.65793-35.91178-7.99359A133.3505,133.3505,0,0,1,4.0778,158.30362a5.53533,5.53533,0,0,1,7.717-7.93773h0a124.265,124.265,0,0,0,33.50684,21.77565c25.45289,10.94341,48.4893,9.078,68.469-5.54522a5.53529,5.53529,0,1,1,6.53822,8.93362A72.9518,72.9518,0,0,1,76.52678,190.17005Z"></path>
      </g>
      <g id="arm-1">
        <path class="cls-3" d="M108.20726,154.95541c-10.37781,0-21.2587-3.31038-31.0828-9.52049C68.0503,139.69906,59.72751,131.58529,51.6804,120.63c-2.39-3.25361-4.731-6.72057-6.95824-10.30483a5.53522,5.53522,0,1,1,9.40283-5.84307c2.077,3.34227,4.25635,6.57012,6.47768,9.59418,7.21374,9.82068,14.5529,17.01712,22.43693,22.00088,9.15543,5.78722,19.2781,8.50568,28.5011,7.65629a5.53524,5.53524,0,1,1,1.01588,11.02377Q110.40165,154.95586,108.20726,154.95541Z"></path>
      </g>
    </g>
    <g id="hexy">
      <g id="body">
        <path class="cls-3" d="M267.46462,290.42867a144.6857,144.6857,0,0,0-4.35737-31.69462,120.44284,120.44284,0,0,0-9.23186-25.09087c-6.62762-13.0836-10.46346-27.48557-10.02468-42.14549.02479-.82849.02589-4.11171.00278-4.91493a95.57727,95.57727,0,0,1,4.15726-30.9125,74.70211,74.70211,0,1,0-142.57395.7729,90.16781,90.16781,0,0,1,3.91493,30.12964c-.0233.80652-.02258,4.09624.00222,4.92465.43892,14.66022-3.39711,29.06246-10.02482,42.14634a120.43242,120.43242,0,0,0-9.23144,25.09026,144.70374,144.70374,0,0,0-4.35738,31.69462h45.62382c.15592-7.85156,2.28282-24.753,9.621-38.06008a61.64039,61.64039,0,0,0,71.23461,0c7.33821,13.30712,9.46484,30.20852,9.621,38.06008Z"></path>
      </g>
      <g id="spots">
        <g id="spot-9">
          <g id="spot-9-2" data-name="spot-9" class="cls-4">
            <circle class="cls-5" cx="219.70549" cy="94.49183" r="3.64642"></circle>
          </g>
          <g id="shine-9" class="cls-4">
            <path class="cls-5" d="M219.70549,92.41564a3.93231,3.93231,0,0,1,2.84141,1.21162,2.97,2.97,0,0,0-5.68286,0A3.93243,3.93243,0,0,1,219.70549,92.41564Z"></path>
          </g>
        </g>
        <g id="spot-8">
          <g id="spot-8-2" data-name="spot-8" class="cls-4">
            <circle class="cls-5" cx="195.6087" cy="114.98324" r="5.52662"></circle>
          </g>
          <g id="shine-8" class="cls-4">
            <path class="cls-5" d="M195.60869,111.83652a5.9599,5.9599,0,0,1,4.30653,1.83636,4.50141,4.50141,0,0,0-8.6131,0A5.96008,5.96008,0,0,1,195.60869,111.83652Z"></path>
          </g>
        </g>
        <g id="spot-7">
          <g id="spot-7-2" data-name="spot-7" class="cls-4">
            <circle class="cls-5" cx="163.36026" cy="103.71337" r="4.50167"></circle>
          </g>
          <g id="shine-7" class="cls-4">
            <path class="cls-5" d="M163.36025,101.15022a4.85462,4.85462,0,0,1,3.50785,1.4958,3.66659,3.66659,0,0,0-7.01574,0A4.85476,4.85476,0,0,1,163.36025,101.15022Z"></path>
          </g>
        </g>
        <g id="spot-6">
          <g id="spot-6-2" data-name="spot-6" class="cls-4">
            <circle class="cls-5" cx="234.42925" cy="140.67252" r="4.50167"></circle>
          </g>
          <g id="shine-6" class="cls-4">
            <path class="cls-5" d="M234.42925,138.10938a4.85458,4.85458,0,0,1,3.50784,1.49579,3.66659,3.66659,0,0,0-7.01573,0A4.85473,4.85473,0,0,1,234.42925,138.10938Z"></path>
          </g>
        </g>
        <g id="spot-5">
          <g id="spot-5-2" data-name="spot-5" class="cls-4">
            <circle class="cls-5" cx="118.60792" cy="144.59781" r="4.50167"></circle>
          </g>
          <g id="shine-5" class="cls-4">
            <path class="cls-5" d="M118.60791,142.03467a4.85462,4.85462,0,0,1,3.50785,1.4958,3.66659,3.66659,0,0,0-7.01574,0A4.85476,4.85476,0,0,1,118.60791,142.03467Z"></path>
          </g>
        </g>
        <g id="spot-4">
          <g id="spot-4-2" data-name="spot-4" class="cls-4">
            <circle class="cls-5" cx="120.99087" cy="207.38438" r="2.37426"></circle>
          </g>
          <g id="shine-4" class="cls-4">
            <path class="cls-5" d="M120.99087,206.03254a2.56041,2.56041,0,0,1,1.8501.78891,1.93383,1.93383,0,0,0-3.70023,0A2.5605,2.5605,0,0,1,120.99087,206.03254Z"></path>
          </g>
        </g>
        <g id="spot-3">
          <g id="spot-3-2" data-name="spot-3" class="cls-4">
            <circle class="cls-5" cx="232.94436" cy="256.55544" r="6.08102"></circle>
          </g>
          <g id="shine-3" class="cls-4">
            <path class="cls-5" d="M232.94436,253.09306a6.55779,6.55779,0,0,1,4.73853,2.02057,4.953,4.953,0,0,0-9.47712,0A6.558,6.558,0,0,1,232.94436,253.09306Z"></path>
          </g>
        </g>
        <g id="spot-2">
          <g id="spot-2-2" data-name="spot-2" class="cls-4">
            <circle class="cls-5" cx="243.23731" cy="236.66796" r="3.46239"></circle>
          </g>
          <g id="shine-2" class="cls-4">
            <path class="cls-5" d="M243.23731,234.69656a3.73381,3.73381,0,0,1,2.698,1.15047,2.8201,2.8201,0,0,0-5.396,0A3.73391,3.73391,0,0,1,243.23731,234.69656Z"></path>
          </g>
        </g>
        <g id="spot-1">
          <g id="spot-1-2" data-name="spot-1" class="cls-4">
            <circle class="cls-5" cx="104.34353" cy="254.39028" r="3.46239"></circle>
          </g>
          <g id="shine-1" class="cls-4">
            <path class="cls-5" d="M104.34352,252.41888a3.73382,3.73382,0,0,1,2.698,1.15047,2.8201,2.8201,0,0,0-5.396,0A3.73391,3.73391,0,0,1,104.34352,252.41888Z"></path>
          </g>
        </g>
      </g>
    </g>
    <g id="barefoot">
      <g id="toenail-left">
        <path class="cls-6" d="M96.69732,280.35874a6.59254,6.59254,0,0,0-6.59251,6.59251v3.47743h13.185v-3.47743A6.59254,6.59254,0,0,0,96.69732,280.35874Zm17.70106,0a6.59254,6.59254,0,0,0-6.59252,6.59251v3.47743h13.185v-3.47743A6.59254,6.59254,0,0,0,114.39838,280.35874Z"></path>
      </g>
      <g id="toenail-right">
        <path class="cls-6" d="M239.5369,280.35874h-.0001a6.59245,6.59245,0,0,0-6.59241,6.59251v3.47743h13.18492v-3.47743A6.59245,6.59245,0,0,0,239.5369,280.35874Zm17.70106,0a6.59255,6.59255,0,0,0-6.59252,6.59251v3.47743h13.18493v-3.47743A6.59245,6.59245,0,0,0,257.238,280.35874Z"></path>
      </g>
    </g>
    <g id="round">
      <g class="cls-7">
        <g id="inside">
          <ellipse class="cls-8" cx="176.60247" cy="176.73687" rx="48.59082" ry="48.30666"></ellipse>
        </g>
        <g id="tongue">
          <path class="cls-9" d="M183.297,171.54725a34.43135,34.43135,0,0,0-5.5084,1.49346,34.12767,34.12767,0,0,1,14.88594,22.45153,34.543,34.543,0,0,1,.51845,4.50589,34.2189,34.2189,0,1,0-12.592,38.29747,34.23506,34.23506,0,1,0,2.69606-66.74835Z"></path>
        </g>
        <g id="teeth">
          <path class="cls-5" d="M205.18638,197.5043a5.708,5.708,0,0,0,1.26278,7.97295l8.71562,6.33228,6.71017-9.23575-8.71562-6.33227A5.708,5.708,0,0,0,205.18638,197.5043Zm7.97295-40.27206L221.875,150.9l-6.71017-9.23575-8.71562,6.33223a5.708,5.708,0,0,0,6.71017,9.23579ZM188.3885,213.01051a4.73528,4.73528,0,0,0-3.04021,5.96677L188.11,227.477l9.007-2.92658-2.76173-8.49968A4.73525,4.73525,0,0,0,188.3885,213.01051Zm-8.426-73.29788a8.24551,8.24551,0,0,0,5.29395,10.39h0a8.24552,8.24552,0,0,0,10.38995-5.29395l4.809-14.80061-15.68395-5.096Zm-12.764,65.96675a7.405,7.405,0,0,0-9.33079,4.75429l-4.31877,13.29178L167.634,228.302l4.31876-13.29182A7.40494,7.40494,0,0,0,167.19847,205.67938Zm-.47688-59.35271h0a6.8705,6.8705,0,0,0,4.41113-8.65731l-4.00706-12.33246-13.06846,4.24621,4.00706,12.33243A6.87046,6.87046,0,0,0,166.72159,146.32667Zm-26.676,49.91484L131.33,202.57378l6.71017,9.23575,8.71562-6.33228a5.708,5.708,0,1,0-6.71017-9.23574Zm6.71017-48.24506-8.71562-6.33223L131.33,150.9l8.71562,6.33227a5.708,5.708,0,0,0,6.71017-9.23579Z"></path>
        </g>
      </g>
      <g id="lips">
        <path class="cls-10" d="M176.60242,226.51968a49.78357,49.78357,0,1,1,50.067-49.78286A49.98191,49.98191,0,0,1,176.60242,226.51968Zm0-96.61336a46.83145,46.83145,0,1,0,47.11484,46.8305A47.02647,47.02647,0,0,0,176.60242,129.90632Z"></path>
      </g>
      <g id="shadow" class="cls-11">
        <path class="cls-12" d="M176.39763,244.61671a75.15221,75.15221,0,0,1-49.29738-18.0609c11.122,16.82747,29.05632,27.75906,49.29738,27.75906,20.24134,0,38.17563-10.93159,49.29766-27.75906A75.15351,75.15351,0,0,1,176.39763,244.61671Z"></path>
      </g>
    </g>
    <g id="baseball">
      <g id="ball-1">
        <g id="ball">
          <path class="cls-13" d="M56.81732,114.78205a14.54661,14.54661,0,0,0,10.05833,2.54753c.381.127.74487.2003.97692-.14688.218.15944.46562.12059.7488-.15834A14.59387,14.59387,0,0,0,79.778,102.01509c.312-.41119.24777-.69888-.07873-.90112.29454-.317.134-.5872-.12537-.847A14.595,14.595,0,0,0,63.69439,88.3041c-.41693-.30505-.70379-.21267-.91092.124-.217-.2021-.423-.4407-.88467.17654a14.596,14.596,0,0,0-11.298,14.419c-.26646.43565-.42192.86413.07178,1.25147-.39249.36174-.24811.83619.20392,1.3748A14.55162,14.55162,0,0,0,56.81732,114.78205Z"></path>
        </g>
        <g id="stitching">
          <path class="cls-14" d="M51.59417,103.96594l-.01341.00316a.68933.68933,0,0,0,.02955-.07244,3.20094,3.20094,0,0,1-.03536-.92543.116.116,0,0,0-.08079-.04226.1501.1501,0,0,0-.06809.03464,2.37581,2.37581,0,0,0-.23176,1.06716l.05207.02977a2.598,2.598,0,0,0,.6116.78863c.1437.03806.15471-.03257.09514-.14879A1.61524,1.61524,0,0,1,51.59417,103.96594Zm.98847-.24523-.01432.00144a.7441.7441,0,0,0,.04189-.07324,3.45994,3.45994,0,0,1,.0928-.99328.12787.12787,0,0,0-.0805-.0564.15927.15927,0,0,0-.07726.02775,2.56078,2.56078,0,0,0-.39845,1.10616l.05157.03928a2.799,2.799,0,0,0,.54153.9285c.14823.061.17-.01306.12273-.14568A1.74442,1.74442,0,0,1,52.58264,103.72071Zm3.88585-.867a3.14748,3.14748,0,0,0-.894,1.13508l.04475.06563a3.444,3.444,0,0,0,.2706,1.29265c.14924.1283.20329.05059.19949-.12207a2.1424,2.1424,0,0,1-.00176-1.08148l-.01766-.00392a.90764.90764,0,0,0,.07719-.0691,4.247,4.247,0,0,1,.49384-1.12166.15269.15269,0,0,0-.07185-.0968A.19643.19643,0,0,0,56.46849,102.85366Zm-2.42893-.24871a.13814.13814,0,0,0-.079-.07162.17123.17123,0,0,0-.08712.0187,2.77818,2.77818,0,0,0-.58108,1.1367l.05.04928a3.03481,3.03481,0,0,0,.45519,1.07454c.15132.08595.18494.00923.15235-.13983a1.895,1.895,0,0,1-.18656-.93723l-.01583-.00036a.80679.80679,0,0,0,.05518-.07325A3.75316,3.75316,0,0,1,54.03956,102.605Zm1.31268.10956a.1464.1464,0,0,0-.07591-.08478.18351.18351,0,0,0-.094.01032,2.96063,2.96063,0,0,0-.74146,1.1412l.04766.05775a3.23206,3.23206,0,0,0,.36474,1.189c.15079.10793.1946.03045.17672-.13149a2.01259,2.01259,0,0,1-.09467-1.01391l-.017-.0022a.85418.85418,0,0,0,.0666-.07167A3.98967,3.98967,0,0,1,55.35224,102.71451Zm5.65434,2.0056a.17556.17556,0,0,0-.04935-.12834.22345.22345,0,0,0-.11137-.0286,3.57835,3.57835,0,0,0-1.32671.97445c.00971.029.01928.05748.02908.08549a3.91341,3.91341,0,0,0-.096,1.50194c.12469.18641.20759.11749.25624-.07306a2.43908,2.43908,0,0,1,.32684-1.18842l-.01811-.00964a1.036,1.036,0,0,0,.10586-.05239A4.8428,4.8428,0,0,1,61.00658,104.72011Zm-3.28607-1.53221a3.28565,3.28565,0,0,0-1.02909,1.10778c.01383.0246.02744.04879.04118.07248a3.59061,3.59061,0,0,0,.172,1.371c.14471.14659.20751.07019.21852-.1105a2.24145,2.24145,0,0,1,.09-1.128l-.01779-.00549a.94312.94312,0,0,0,.08644-.06555,4.43506,4.43506,0,0,1,.61041-1.128.16062.16062,0,0,0-.06645-.107A.20536.20536,0,0,0,57.72051,103.1879Zm4.79988,2.457a.17708.17708,0,0,0-.04207-.13243.22712.22712,0,0,0-.1105-.03546,3.6202,3.6202,0,0,0-1.39631.90373c.00814.02991.01615.05937.02444.08838a3.9516,3.9516,0,0,0-.18606,1.50851c.11442.19542.20221.13082.26269-.05856a2.45782,2.45782,0,0,1,.40037-1.17886l-.0175-.01068a1.05,1.05,0,0,0,.10969-.04644A4.88085,4.88085,0,0,1,62.52039,105.64487Zm-2.9582-1.69307a.17328.17328,0,0,0-.05482-.123.22037.22037,0,0,0-.11052-.0223,3.50865,3.50865,0,0,0-1.24822,1.02116c.011.02775.02178.05514.03277.082a3.83838,3.83838,0,0,0-.01711,1.47441c.13131.17573.2091.10415.247-.08482a2.3844,2.3844,0,0,1,.25894-1.179l-.01828-.00856a1.0124,1.0124,0,0,0,.10081-.05667A4.74673,4.74673,0,0,1,59.56219,103.9518ZM65.915,97.96332a.17394.17394,0,0,0,.02034.13469.21608.21608,0,0,0,.10147.05144,3.53938,3.53938,0,0,0,1.49079-.65741l-.00962-.0877a3.8743,3.8743,0,0,0,.4145-1.43185c-.08032-.20658-.17528-.158-.26314.01608a2.41523,2.41523,0,0,1-.57054,1.078l.01536.01316a1.02252,1.02252,0,0,0-.11345.028A4.78631,4.78631,0,0,1,65.915,97.96332Zm-2.02139,8.70573a.17826.17826,0,0,0-.03466-.13428.22051.22051,0,0,0-.10829-.04172,3.61321,3.61321,0,0,0-1.44516.82345c.00633.03.01261.05951.01914.08856a3.95937,3.95937,0,0,0-.27064,1.49654c.10314.20149.19438.14194.26551-.04383a2.4632,2.4632,0,0,1,.46625-1.15414l-.01716-.01189a1.03381,1.03381,0,0,0,.1125-.04045A4.88956,4.88956,0,0,1,63.89359,106.66905ZM65.895,96.08939a4.633,4.633,0,0,1-1.10585.75561.16973.16973,0,0,0,.01075.13149.21059.21059,0,0,0,.09462.05626,3.4333,3.4333,0,0,0,1.48486-.53713c-.00108-.029-.00216-.05748-.00358-.08564a3.76041,3.76041,0,0,0,.49513-1.357c-.06412-.20528-.15913-.16415-.25577-.00194a2.33649,2.33649,0,0,1-.62255,1.00468l.01424.014A.99755.99755,0,0,0,65.895,96.08939Zm1.36067,2.97126a.17938.17938,0,0,0,.03464.13424.22859.22859,0,0,0,.10829.04176,3.61444,3.61444,0,0,0,1.4448-.82422c-.00635-.02995-.01263-.05946-.01914-.08847a3.96222,3.96222,0,0,0,.27032-1.4968c-.10333-.20118-.19458-.14167-.26573.04414a2.45764,2.45764,0,0,1-.46594,1.15436l.01705.01172a1.05414,1.05414,0,0,0-.11221.04027A4.877,4.877,0,0,1,67.2557,99.06065Zm-2.18345-4.07211a.95984.95984,0,0,0-.109.01207,4.49183,4.49183,0,0,1-1.11472.66264.16244.16244,0,0,0,.00227.12734.20547.20547,0,0,0,.08784.06023,3.32242,3.32242,0,0,0,1.46782-.42776c.00072-.02856.00144-.05667.00178-.08437a3.62812,3.62812,0,0,0,.56132-1.27919c-.04919-.20221-.1434-.16843-.24665-.01739a2.26294,2.26294,0,0,1-.66333.93229Zm-.80482-1.0017a.9224.9224,0,0,0-.105.00284,4.28814,4.28814,0,0,1-1.11477.54218.157.157,0,0,0-.00822.12171.19974.19974,0,0,0,.07908.0646,3.17679,3.17679,0,0,0,1.43237-.291l.00846-.07978a3.48214,3.48214,0,0,0,.63723-1.17413c-.03119-.19668-.1237-.17217-.23406-.03663a2.16249,2.16249,0,0,1-.70606.83575Zm-1.676-3.68674.04419-.04252a2.63691,2.63691,0,0,0,.94336-.36943c.07795-.12924.0125-.16027-.11782-.13554a1.63911,1.63911,0,0,1-.81834.13933l-.00072.01387a.69719.69719,0,0,0-.06194-.04942,3.26419,3.26419,0,0,1-.91189-.23072.117.117,0,0,0-.06424.06666.153.153,0,0,0,.0141.076A2.41335,2.41335,0,0,0,62.59139,90.3001Zm.03052-.88624.04121-.03969a2.47045,2.47045,0,0,0,.88127-.3451c.073-.121.01155-.1496-.11007-.12667a1.53593,1.53593,0,0,1-.76428.13036l-.00066.01271a.64525.64525,0,0,0-.058-.0464,3.03816,3.03816,0,0,1-.85178-.21528.11092.11092,0,0,0-.05987.0623.1393.1393,0,0,0,.01324.071A2.25638,2.25638,0,0,0,62.62191,89.41386Zm1.006,3.5675a.85713.85713,0,0,0-.09851-.0068,4.04523,4.04523,0,0,1-1.095.40843.14727.14727,0,0,0-.0184.1137.19024.19024,0,0,0,.06826.06757,2.99416,2.99416,0,0,0,1.37007-.1441l.01507-.07447a3.27506,3.27506,0,0,0,.70311-1.04413c-.011-.1873-.10035-.17239-.21623-.05522a2.0378,2.0378,0,0,1-.73734.72051Zm-.82894-1.65523.03552-.05618a2.873,2.873,0,0,0,.90329-.63741c.04937-.15725-.02829-.1727-.16014-.1127a1.78824,1.78824,0,0,1-.83021.3606l.00289.015a.764.764,0,0,0-.079-.0364,3.54486,3.54486,0,0,1-1.02582-.007.13189.13189,0,0,0-.05081.08748.164.164,0,0,0,.03511.07676A2.62773,2.62773,0,0,0,62.79894,91.32613Zm.258.52348.00638.0146a.80889.80889,0,0,0-.09061-.01937,3.79761,3.79761,0,0,1-1.07224.23469.13854.13854,0,0,0-.03187.10293.17281.17281,0,0,0,.05434.07185,2.809,2.809,0,0,0,1.29286.04793l.0239-.06712a3.07286,3.07286,0,0,0,.792-.87787c.01448-.17554-.07045-.17379-.19354-.08A1.91573,1.91573,0,0,1,63.057,91.84961Zm10.91576,9.03416a3.59386,3.59386,0,0,0-.17672-1.3704c-.14494-.14622-.20744-.06964-.218.1109a2.241,2.241,0,0,1-.08628,1.12837l.01781.00545a.9639.9639,0,0,0-.08617.06577,4.45517,4.45517,0,0,1-.607,1.13.1611.1611,0,0,0,.06662.10676.20375.20375,0,0,0,.10546.00648,3.29382,3.29382,0,0,0,1.02562-1.11107Zm.73759-1.01751c-.149-.1286-.20309-.0509-.19929.12172a2.13939,2.13939,0,0,1,.00124,1.08157l.01768.004a.90915.90915,0,0,0-.07718.0691,4.24969,4.24969,0,0,1-.49416,1.12148.15481.15481,0,0,0,.07164.09707.19964.19964,0,0,0,.10088-.002,3.14687,3.14687,0,0,0,.89425-1.13482l-.045-.066A3.42461,3.42461,0,0,0,74.71031,99.86626Zm-9.439,8.039a.17409.17409,0,0,0-.0202-.13419.21558.21558,0,0,0-.10151-.05144,3.54527,3.54527,0,0,0-1.49111.65723l.0098.08811a3.87382,3.87382,0,0,0-.41447,1.43117c.08041.20708.17512.15825.26327-.01563a2.40709,2.40709,0,0,1,.57054-1.078l-.01552-.01325a1.03353,1.03353,0,0,0,.11361-.02793A4.78831,4.78831,0,0,1,65.27131,107.9053Zm6.27185-8.0212a3.8318,3.8318,0,0,0,.01779-1.47392c-.13138-.17622-.2089-.10442-.24676.08455a2.39037,2.39037,0,0,1-.25947,1.17909l.018.00847a1.019,1.019,0,0,0-.10077.05658,4.73642,4.73642,0,0,1-.80975,1.103.17422.17422,0,0,0,.05482.123.21855.21855,0,0,0,.11023.02207,3.50924,3.50924,0,0,0,1.24889-1.02021C71.56505,99.9387,71.5542,99.91113,71.54316,99.8841ZM70.22609,99.174a3.91324,3.91324,0,0,0,.09545-1.50149c-.12446-.18667-.20759-.11743-.25627.07312a2.43732,2.43732,0,0,1-.32631,1.18828l.01815.00968a1.03472,1.03472,0,0,0-.10608.05262,4.82911,4.82911,0,0,1-.8833,1.08165.177.177,0,0,0,.04953.128.21971.21971,0,0,0,.11136.02865,3.58048,3.58048,0,0,0,1.32668-.97494C70.24555,99.23066,70.23593,99.2021,70.22609,99.174Zm7.463,1.25072c-.1482-.061-.17005.01261-.123.14545a1.73847,1.73847,0,0,1,.279.83476l.01448-.00149a.74562.74562,0,0,0-.04182.073,3.45291,3.45291,0,0,1-.09381.99346.12642.12642,0,0,0,.08048.05639.15558.15558,0,0,0,.077-.02743A2.55362,2.55362,0,0,0,78.281,101.393l-.05131-.03924A2.80056,2.80056,0,0,0,77.6891,100.42475Zm1.526.67516a2.59292,2.59292,0,0,0-.6099-.7903c-.14379-.03856-.155.03239-.09543.14865a1.62,1.62,0,0,1,.35755.73516l.01309-.00306a.68967.68967,0,0,0-.02975.07243,3.20366,3.20366,0,0,1,.03355.92548.11594.11594,0,0,0,.08082.04221.148.148,0,0,0,.06786-.03432,2.3719,2.3719,0,0,0,.23393-1.06652Zm-3.43029-.92183c-.15072-.10744-.19453-.03-.17662.13194a2.01581,2.01581,0,0,1,.09466,1.01386l.01667.00216a.86863.86863,0,0,0-.06658.07153,4.00224,4.00224,0,0,1-.367,1.09454.14541.14541,0,0,0,.07564.08456.18306.18306,0,0,0,.09446-.01046,2.95893,2.95893,0,0,0,.741-1.14107l-.04766-.05779A3.24126,3.24126,0,0,0,75.7848,100.17808Zm1.00395.14626c-.15133-.086-.18444-.00932-.152.14a1.89505,1.89505,0,0,1,.18652.93724l.01585.00036a.80891.80891,0,0,0-.05516.07324,3.75768,3.75768,0,0,1-.23669,1.05666.13655.13655,0,0,0,.0788.07189.16777.16777,0,0,0,.08681-.01887,2.78,2.78,0,0,0,.58157-1.13679l-.05032-.0496A3.03578,3.03578,0,0,0,76.78875,100.32434Zm-4.14619-1.32883c-.13973-.16369-.211-.08883-.23557.09857a2.34143,2.34143,0,0,1-.17683,1.16868l.01809.007a.99672.99672,0,0,0-.0948.06185,4.631,4.631,0,0,1-.71917,1.13058.16984.16984,0,0,0,.06165.11635.21817.21817,0,0,0,.10921.01482,3.43893,3.43893,0,0,0,1.15367-1.07868c-.01259-.02653-.025-.05266-.03755-.07825A3.76226,3.76226,0,0,0,72.64256,98.99551ZM67.2971,112.96682l-.00917-.01487a.88515.88515,0,0,0,.0989.0068,4.06141,4.06141,0,0,1,1.09474-.40857.14757.14757,0,0,0,.01845-.11324.18379.18379,0,0,0-.06822-.06757,2.99283,2.99283,0,0,0-1.36989.14387l-.01511.07388a3.27524,3.27524,0,0,0-.70356,1.04476c.01151.18726.10061.17258.2162.05523A2.04026,2.04026,0,0,1,67.2971,112.96682Zm-1.431-2.1575a.9538.9538,0,0,0,.10917-.01208,4.49188,4.49188,0,0,1,1.11513-.66191.16268.16268,0,0,0-.0023-.12735.20578.20578,0,0,0-.08764-.06058,3.32964,3.32964,0,0,0-1.4682.42713l-.00185.08437a3.63564,3.63564,0,0,0-.56231,1.27882c.04944.20244.14367.16866.24694.01766a2.2667,2.2667,0,0,1,.66361-.9321Zm2.09423,3.81363-.03569.05622a2.88432,2.88432,0,0,0-.90361.63741c-.04917.157.02858.17293.16014.11275a1.79461,1.79461,0,0,1,.83038-.36091l-.00279-.0146a.77063.77063,0,0,0,.0787.03631,3.55468,3.55468,0,0,1,1.02636.00689.131.131,0,0,0,.05061-.08712.16392.16392,0,0,0-.03512-.07676A2.62575,2.62575,0,0,0,67.96036,114.623Zm-2.87389-4.76249a.99342.99342,0,0,0,.11162-.01951,4.63443,4.63443,0,0,1,1.10614-.75538.16969.16969,0,0,0-.01079-.13154.21442.21442,0,0,0-.09457-.05622,3.43522,3.43522,0,0,0-1.485.5366l.00361.08568a3.7597,3.7597,0,0,0-.49542,1.35675c.06392.20559.15892.16447.25557.00225a2.33781,2.33781,0,0,1,.62274-1.005Zm1.55523,1.99389a.91644.91644,0,0,0,.10511-.0032,4.29517,4.29517,0,0,1,1.11274-.54623.15633.15633,0,0,0,.00775-.12154.19922.19922,0,0,0-.07931-.06437,3.182,3.182,0,0,0-1.43126.29573l-.0082.08a3.47942,3.47942,0,0,0-.6329,1.17666c.03171.19658.12415.17153.23413.03531a2.16547,2.16547,0,0,1,.70306-.83782Zm1.356,4.48816-.03759-.02671a2.56031,2.56031,0,0,0-.87221.29875.06978.06978,0,0,0-.0143.046.09182.09182,0,0,0,.055.04208,3.99963,3.99963,0,0,1,.81066-.11712c.02259-.00991.0389-.01919.05592-.02852l.00027.00829a2.02913,2.02913,0,0,1,.71922.10568c.11448.01851.17322.001.10736-.07937A2.97651,2.97651,0,0,0,67.99766,116.34251Zm-.28086-2.30431-.00635-.01459a.81113.81113,0,0,0,.09061.01937,3.79884,3.79884,0,0,1,1.07222-.23474.13816.13816,0,0,0,.03187-.10293.17238.17238,0,0,0-.05433-.0718,2.81332,2.81332,0,0,0-1.29286-.04789l-.02394.06712a3.07318,3.07318,0,0,0-.79192.87778c-.01443.17559.07048.17379.19328.07991A1.92108,1.92108,0,0,1,67.7168,114.0382Zm.47763,1.51546-.04755.03522a3.03058,3.03058,0,0,0-.97447.29033c-.09054.11036-.02815.14014.10356.12343a1.88243,1.88243,0,0,1,.82733-.0928l.002-.01189a.60678.60678,0,0,0,.05667.04558,3.417,3.417,0,0,1,.884.23614.12619.12619,0,0,0,.07018-.0564.11565.11565,0,0,0-.00669-.0673A2.29135,2.29135,0,0,0,68.19443,115.55366Zm-.23774,1.28256-.02482-.01842a1.79567,1.79567,0,0,0-.61281.20987.04773.04773,0,0,0-.01032.03221.06411.06411,0,0,0,.03872.02973,2.81883,2.81883,0,0,1,.56984-.08235.26441.26441,0,0,0,.03937-.02392l.00034.00978a1.42227,1.42227,0,0,1,.5054.07441c.08052.01266.12169.00082.07568-.056A2.09928,2.09928,0,0,0,67.95669,116.83622Z"></path>
        </g>
      </g>
      <g id="ball-2">
        <g id="ball-2-2" data-name="ball">
          <path class="cls-13" d="M325.62468,209.00334a14.5466,14.5466,0,0,0,10.05833,2.54753c.381.127.74487.2003.97692-.14688.218.15944.46562.12059.7488-.15834a14.59387,14.59387,0,0,0,11.1766-15.00927c.312-.41119.24777-.69888-.07873-.90111.29454-.317.134-.58721-.12537-.84706a14.59506,14.59506,0,0,0-15.87948-11.96282c-.41693-.305-.70379-.21267-.91092.124-.217-.2021-.423-.4407-.88467.17654a14.59594,14.59594,0,0,0-11.298,14.419c-.26646.43565-.42192.86413.07178,1.25148-.39249.36173-.24811.83618.20392,1.37479A14.55162,14.55162,0,0,0,325.62468,209.00334Z"></path>
        </g>
        <g id="stitching-2" data-name="stitching">
          <path class="cls-14" d="M320.40152,198.18723l-.0134.00316a.68844.68844,0,0,0,.02955-.07244,3.20059,3.20059,0,0,1-.03536-.92543.11605.11605,0,0,0-.08079-.04226.15006.15006,0,0,0-.06809.03465,2.37574,2.37574,0,0,0-.23176,1.06715l.05207.02977a2.598,2.598,0,0,0,.6116.78863c.1437.03807.15471-.03257.09514-.14879A1.61536,1.61536,0,0,1,320.40152,198.18723Zm.98848-.24523-.01432.00144a.7441.7441,0,0,0,.04189-.07324,3.45994,3.45994,0,0,1,.0928-.99328.12787.12787,0,0,0-.0805-.0564.15927.15927,0,0,0-.07726.02775,2.56092,2.56092,0,0,0-.39846,1.10616l.05158.03929a2.79909,2.79909,0,0,0,.54153.92849c.14822.061.17-.01306.12273-.14568A1.74442,1.74442,0,0,1,321.39,197.942Zm3.88585-.86705a3.14748,3.14748,0,0,0-.894,1.13508l.04475.06563a3.444,3.444,0,0,0,.2706,1.29265c.14924.1283.20329.05059.19949-.12207a2.14229,2.14229,0,0,1-.00176-1.08148l-.01766-.00392a.90764.90764,0,0,0,.07719-.0691,4.24681,4.24681,0,0,1,.49384-1.12165.15272.15272,0,0,0-.07185-.09681A.19643.19643,0,0,0,325.27585,197.075Zm-2.42893-.2487a.13815.13815,0,0,0-.079-.07163.17121.17121,0,0,0-.08712.0187,2.77818,2.77818,0,0,0-.58108,1.1367l.05.04928a3.03481,3.03481,0,0,0,.45519,1.07454c.15131.08595.18494.00923.15235-.13983a1.895,1.895,0,0,1-.18656-.93723l-.01583-.00036a.80679.80679,0,0,0,.05518-.07325A3.753,3.753,0,0,1,322.84692,196.82625Zm1.31267.10955a.14635.14635,0,0,0-.0759-.08478.18351.18351,0,0,0-.094.01032,2.96063,2.96063,0,0,0-.74146,1.1412l.04766.05775a3.23206,3.23206,0,0,0,.36474,1.189c.15079.10793.1946.03045.17671-.13149a2.01259,2.01259,0,0,1-.09466-1.01391l-.017-.0022a.85418.85418,0,0,0,.0666-.07167A3.99,3.99,0,0,1,324.15959,196.9358Zm5.65435,2.0056a.17558.17558,0,0,0-.04935-.12833.22336.22336,0,0,0-.11137-.02861,3.57835,3.57835,0,0,0-1.32671.97445c.0097.029.01928.05748.02907.08549a3.91356,3.91356,0,0,0-.096,1.50194c.12468.18641.20759.11749.25624-.07306a2.43911,2.43911,0,0,1,.32684-1.18842l-.01811-.00964a1.036,1.036,0,0,0,.10586-.05239A4.8428,4.8428,0,0,1,329.81394,198.9414Zm-3.28607-1.53221a3.28558,3.28558,0,0,0-1.02909,1.10779c.01383.02459.02744.04878.04117.07247a3.59077,3.59077,0,0,0,.172,1.371c.14471.14659.20751.07019.21852-.11049a2.24148,2.24148,0,0,1,.09-1.128l-.01779-.00549a.94312.94312,0,0,0,.08644-.06555,4.43475,4.43475,0,0,1,.61041-1.128.16062.16062,0,0,0-.06645-.107A.20536.20536,0,0,0,326.52787,197.40919Zm4.79988,2.457a.17712.17712,0,0,0-.04207-.13243.22712.22712,0,0,0-.1105-.03546,3.62031,3.62031,0,0,0-1.39631.90373c.00813.02991.01615.05937.02444.08838a3.9516,3.9516,0,0,0-.18606,1.50851c.11441.19542.20221.13082.26269-.05856a2.45782,2.45782,0,0,1,.40037-1.17886l-.0175-.01068a1.05,1.05,0,0,0,.10969-.04644A4.88082,4.88082,0,0,1,331.32775,199.86616Zm-2.9582-1.69307a.17328.17328,0,0,0-.05482-.123.22025.22025,0,0,0-.11052-.02229A3.50843,3.50843,0,0,0,326.956,199.049c.011.02775.02178.05514.03277.082a3.83849,3.83849,0,0,0-.01712,1.47442c.13131.17572.20911.10414.247-.08483a2.38452,2.38452,0,0,1,.25895-1.179l-.01829-.00856a1.01135,1.01135,0,0,0,.10082-.05667A4.74673,4.74673,0,0,1,328.36955,198.17309Zm6.35279-5.98848a.17385.17385,0,0,0,.02034.13469.21608.21608,0,0,0,.10147.05144,3.53938,3.53938,0,0,0,1.49079-.65741l-.00962-.0877a3.8743,3.8743,0,0,0,.4145-1.43185c-.08032-.20658-.17528-.158-.26314.01608a2.41523,2.41523,0,0,1-.57054,1.078l.01536.01316a1.022,1.022,0,0,0-.11345.028A4.786,4.786,0,0,1,334.72234,192.18461Zm-2.02139,8.70573a.17826.17826,0,0,0-.03466-.13428.22051.22051,0,0,0-.1083-.04172,3.61324,3.61324,0,0,0-1.44515.82345c.00632.03.01261.05951.01914.08856a3.95937,3.95937,0,0,0-.27064,1.49654c.10313.20149.19438.14194.2655-.04383a2.46322,2.46322,0,0,1,.46626-1.15414l-.01716-.01189a1.03457,1.03457,0,0,0,.1125-.04045A4.88956,4.88956,0,0,1,332.701,200.89034Zm2.00144-10.57966a4.633,4.633,0,0,1-1.10585.75561.16977.16977,0,0,0,.01074.13149.21069.21069,0,0,0,.09462.05626,3.43317,3.43317,0,0,0,1.48487-.53713c-.00108-.029-.00216-.05748-.00358-.08564a3.76041,3.76041,0,0,0,.49513-1.357c-.06412-.20527-.15913-.16415-.25577-.00194A2.33643,2.33643,0,0,1,334.8,190.277l.01424.014A.99984.99984,0,0,0,334.70239,190.31068Zm1.36067,2.97126a.17938.17938,0,0,0,.03464.13424.22859.22859,0,0,0,.10829.04176,3.61432,3.61432,0,0,0,1.4448-.82422c-.00635-.03-.01263-.05946-.01914-.08847a3.96222,3.96222,0,0,0,.27032-1.4968c-.10334-.20118-.19458-.14167-.26573.04414a2.45764,2.45764,0,0,1-.46594,1.15436l.017.01172a1.05335,1.05335,0,0,0-.11221.04027A4.877,4.877,0,0,1,336.06306,193.28194Zm-2.18345-4.07211a.96213.96213,0,0,0-.10905.01207,4.49171,4.49171,0,0,1-1.11473.66264.16249.16249,0,0,0,.00228.12734.20547.20547,0,0,0,.08784.06023,3.32242,3.32242,0,0,0,1.46782-.42776c.00072-.02856.00144-.05667.00178-.08437a3.62812,3.62812,0,0,0,.56132-1.27919c-.04919-.20221-.1434-.16843-.24665-.01739a2.26294,2.26294,0,0,1-.66333.93229Zm-.80482-1.0017a.9224.9224,0,0,0-.105.00284,4.28814,4.28814,0,0,1-1.11477.54218.157.157,0,0,0-.00822.12171.19974.19974,0,0,0,.07908.0646,3.17659,3.17659,0,0,0,1.43236-.291l.00847-.07978a3.48214,3.48214,0,0,0,.63723-1.17413c-.03119-.19668-.1237-.17217-.23406-.03663a2.16249,2.16249,0,0,1-.70606.83575Zm-1.676-3.68674.04419-.04252a2.63691,2.63691,0,0,0,.94336-.36943c.07795-.12924.0125-.16027-.11782-.13554a1.63911,1.63911,0,0,1-.81834.13933l-.00072.01387a.69865.69865,0,0,0-.06194-.04942,3.26384,3.26384,0,0,1-.91189-.23072.117.117,0,0,0-.06424.06667.153.153,0,0,0,.0141.076A2.41335,2.41335,0,0,0,331.39875,184.52139Zm.03051-.88624.04122-.03969a2.47045,2.47045,0,0,0,.88127-.3451c.073-.121.01155-.1496-.11007-.12667a1.53594,1.53594,0,0,1-.76428.13036l-.00066.01271a.64525.64525,0,0,0-.058-.0464,3.03782,3.03782,0,0,1-.85178-.21528.11089.11089,0,0,0-.05987.0623.13919.13919,0,0,0,.01324.071A2.25629,2.25629,0,0,0,331.42926,183.63515Zm1.006,3.5675a.85713.85713,0,0,0-.09851-.0068,4.04535,4.04535,0,0,1-1.095.40843.14729.14729,0,0,0-.01841.1137.19034.19034,0,0,0,.06827.06757,2.99417,2.99417,0,0,0,1.37007-.1441l.01507-.07446a3.2749,3.2749,0,0,0,.7031-1.04414c-.011-.1873-.10034-.17239-.21622-.05522a2.03788,2.03788,0,0,1-.73734.72051Zm-.82894-1.65523.03552-.05618a2.87326,2.87326,0,0,0,.90329-.6374c.04937-.15726-.02829-.17271-.16014-.11271a1.78833,1.78833,0,0,1-.83021.3606l.00289.015a.764.764,0,0,0-.079-.0364,3.54486,3.54486,0,0,1-1.02582-.007.13194.13194,0,0,0-.05082.08748.164.164,0,0,0,.03512.07676A2.62769,2.62769,0,0,0,331.6063,185.54742Zm.258.52348.00638.0146a.80889.80889,0,0,0-.09061-.01937,3.7976,3.7976,0,0,1-1.07225.23469.13859.13859,0,0,0-.03187.10293.17291.17291,0,0,0,.05435.07185,2.809,2.809,0,0,0,1.29286.04793l.0239-.06712a3.07286,3.07286,0,0,0,.792-.87787c.01448-.17554-.07045-.17379-.19354-.08A1.91571,1.91571,0,0,1,331.86432,186.0709Zm10.91576,9.03416a3.59386,3.59386,0,0,0-.17672-1.3704c-.14494-.14622-.20744-.06964-.218.1109a2.24114,2.24114,0,0,1-.08629,1.12837l.01782.00545a.9639.9639,0,0,0-.08617.06577,4.45549,4.45549,0,0,1-.607,1.12995.16108.16108,0,0,0,.06662.10676.20385.20385,0,0,0,.10546.00649,3.29376,3.29376,0,0,0,1.02562-1.11108Zm.73759-1.01751c-.149-.1286-.20309-.0509-.19929.12172a2.13939,2.13939,0,0,1,.00124,1.08157l.01768.004a.90609.90609,0,0,0-.07718.0691,4.24969,4.24969,0,0,1-.49416,1.12148.15481.15481,0,0,0,.07164.09707.19964.19964,0,0,0,.10088-.002,3.14679,3.14679,0,0,0,.89424-1.13481l-.045-.066A3.42461,3.42461,0,0,0,343.51767,194.08755Zm-9.439,8.039a.17409.17409,0,0,0-.0202-.13419.21558.21558,0,0,0-.10151-.05144,3.54527,3.54527,0,0,0-1.49111.65723l.0098.08811a3.87387,3.87387,0,0,0-.41447,1.43117c.0804.20708.17511.15825.26327-.01563a2.40709,2.40709,0,0,1,.57054-1.078l-.01552-.01325a1.03353,1.03353,0,0,0,.11361-.02793A4.78859,4.78859,0,0,1,334.07867,202.12659Zm6.27185-8.0212a3.8318,3.8318,0,0,0,.01779-1.47392c-.13138-.17622-.2089-.10442-.24676.08455a2.39054,2.39054,0,0,1-.25947,1.1791l.018.00846a1.01675,1.01675,0,0,0-.10077.05658,4.7365,4.7365,0,0,1-.80975,1.103.17422.17422,0,0,0,.05482.123.21855.21855,0,0,0,.11023.02207,3.50914,3.50914,0,0,0,1.24889-1.02021C340.37241,194.16,340.36155,194.13242,340.35052,194.10539Zm-1.31707-.71007a3.91319,3.91319,0,0,0,.09545-1.50148c-.12446-.18668-.20759-.11744-.25627.07311a2.43743,2.43743,0,0,1-.32631,1.18828l.01815.00968a1.03472,1.03472,0,0,0-.10608.05262,4.82939,4.82939,0,0,1-.8833,1.08165.177.177,0,0,0,.04953.128.21968.21968,0,0,0,.11135.02865,3.58043,3.58043,0,0,0,1.32669-.97494C339.05291,193.452,339.04329,193.42339,339.03345,193.39532Zm7.463,1.25072c-.14821-.061-.17005.01261-.123.14546a1.73843,1.73843,0,0,1,.279.83475l.01448-.00148a.74421.74421,0,0,0-.04182.073,3.45326,3.45326,0,0,1-.09381.99346.1264.1264,0,0,0,.08047.05639.15549.15549,0,0,0,.07706-.02743,2.55362,2.55362,0,0,0,.39954-1.10589l-.05131-.03924A2.80056,2.80056,0,0,0,346.49646,194.646Zm1.526.67516a2.59308,2.59308,0,0,0-.6099-.7903c-.14379-.03856-.155.03239-.09544.14865a1.61994,1.61994,0,0,1,.35756.73516l.01309-.00306a.68892.68892,0,0,0-.02976.07244,3.20361,3.20361,0,0,1,.03356.92548.116.116,0,0,0,.08082.0422.148.148,0,0,0,.06786-.03432,2.3719,2.3719,0,0,0,.23393-1.06652Zm-3.43029-.92183c-.15072-.10744-.19453-.03-.17662.13194a2.01581,2.01581,0,0,1,.09466,1.01386l.01667.00216a.86863.86863,0,0,0-.06658.07153,4.00224,4.00224,0,0,1-.367,1.09454.14541.14541,0,0,0,.07564.08456.18318.18318,0,0,0,.09446-.01045,2.959,2.959,0,0,0,.741-1.14108l-.04766-.05779A3.24126,3.24126,0,0,0,344.59216,194.39937Zm1.004.14626c-.15133-.08595-.18444-.00932-.15205.14005a1.89494,1.89494,0,0,1,.18651.93724l.01586.00036a.80891.80891,0,0,0-.05516.07324,3.75736,3.75736,0,0,1-.2367,1.05666.13659.13659,0,0,0,.07881.07189.16779.16779,0,0,0,.08681-.01887,2.7801,2.7801,0,0,0,.58157-1.13679l-.05032-.0496A3.03578,3.03578,0,0,0,345.59611,194.54563Zm-4.14619-1.32882c-.13973-.1637-.211-.08884-.23557.09856a2.34143,2.34143,0,0,1-.17683,1.16868l.01809.007a.99672.99672,0,0,0-.0948.06185,4.6313,4.6313,0,0,1-.71917,1.13058.16984.16984,0,0,0,.06165.11635.21817.21817,0,0,0,.10921.01482,3.439,3.439,0,0,0,1.15367-1.07868c-.0126-.02653-.025-.05266-.03755-.07825A3.76219,3.76219,0,0,0,341.44992,193.21681Zm-5.34546,13.9713-.00917-.01487a.88515.88515,0,0,0,.0989.0068,4.06128,4.06128,0,0,1,1.09474-.40857.14756.14756,0,0,0,.01845-.11324.18379.18379,0,0,0-.06822-.06757,2.99271,2.99271,0,0,0-1.36989.14388l-.01511.07387a3.27524,3.27524,0,0,0-.70356,1.04476c.01151.18726.10061.17258.2162.05523A2.04026,2.04026,0,0,1,336.10446,207.18811Zm-1.431-2.1575a.954.954,0,0,0,.10917-.01208,4.49219,4.49219,0,0,1,1.11513-.66191.16268.16268,0,0,0-.0023-.12735.20578.20578,0,0,0-.08764-.06058,3.32964,3.32964,0,0,0-1.4682.42713l-.00185.08437a3.63564,3.63564,0,0,0-.56231,1.27882c.04944.20244.14367.16866.24694.01766a2.26661,2.26661,0,0,1,.66361-.9321Zm2.09423,3.81363-.0357.05622a2.88457,2.88457,0,0,0-.90361.63741c-.04916.157.02859.17293.16014.11275a1.79469,1.79469,0,0,1,.83039-.36091l-.00279-.0146a.77039.77039,0,0,0,.07869.03631,3.55475,3.55475,0,0,1,1.02637.00689.131.131,0,0,0,.05061-.08712.16392.16392,0,0,0-.03512-.07676A2.626,2.626,0,0,0,336.76772,208.84424Zm-2.87389-4.76249a.99342.99342,0,0,0,.11162-.01951,4.63472,4.63472,0,0,1,1.10614-.75538.16969.16969,0,0,0-.01079-.13154.21451.21451,0,0,0-.09457-.05622,3.43522,3.43522,0,0,0-1.485.5366l.00361.08568a3.7597,3.7597,0,0,0-.49542,1.35675c.06392.20559.15892.16447.25557.00225a2.33781,2.33781,0,0,1,.62274-1.005Zm1.55522,1.99389a.91661.91661,0,0,0,.10512-.0032,4.29517,4.29517,0,0,1,1.11274-.54623.15633.15633,0,0,0,.00775-.12154.19922.19922,0,0,0-.07931-.06437,3.18211,3.18211,0,0,0-1.43126.29573l-.0082.08a3.47942,3.47942,0,0,0-.6329,1.17666c.03171.19658.12415.17154.23413.03531a2.16537,2.16537,0,0,1,.70306-.83781Zm1.356,4.48816-.03759-.02671a2.56031,2.56031,0,0,0-.87221.29875.06978.06978,0,0,0-.0143.046.09179.09179,0,0,0,.055.04208,3.99963,3.99963,0,0,1,.81066-.11712c.02259-.00991.03889-.01919.05592-.02852l.00027.00829a2.029,2.029,0,0,1,.71921.10568c.11449.01851.17323.001.10737-.07937A2.97651,2.97651,0,0,0,336.805,210.5638Zm-.28086-2.30431-.00635-.01459a.81016.81016,0,0,0,.09061.01937,3.79884,3.79884,0,0,1,1.07222-.23474.13816.13816,0,0,0,.03187-.10293.17238.17238,0,0,0-.05433-.0718,2.81332,2.81332,0,0,0-1.29286-.04789l-.02394.06712a3.07318,3.07318,0,0,0-.79192.87778c-.01443.17559.07048.17379.19328.07991A1.92117,1.92117,0,0,1,336.52416,208.25949Zm.47762,1.51546-.04754.03522a3.03041,3.03041,0,0,0-.97447.29033c-.09054.11036-.02815.14014.10356.12343a1.88243,1.88243,0,0,1,.82733-.0928l.002-.01189a.60839.60839,0,0,0,.05667.04559,3.417,3.417,0,0,1,.884.23613.12623.12623,0,0,0,.07018-.0564.11565.11565,0,0,0-.00669-.0673A2.29133,2.29133,0,0,0,337.00178,209.775Zm-.23773,1.28256-.02482-.01842a1.79567,1.79567,0,0,0-.61281.20987.04773.04773,0,0,0-.01032.03221.06411.06411,0,0,0,.03872.02973,2.81873,2.81873,0,0,1,.56984-.08235.26493.26493,0,0,0,.03937-.02392l.00034.00978a1.42249,1.42249,0,0,1,.5054.07441c.08052.01266.12169.00082.07567-.056A2.09941,2.09941,0,0,0,336.76405,211.05751Z"></path>
        </g>
      </g>
      <g id="bat-2">
        <g id="bat">
          <path class="cls-15" d="M321.14158,124.48031a9.81821,9.81821,0,0,1-2.7146.8469c-3.05341.5439-2.71065-1.65067-2.57389-3.948.1362-2.29778-2.02642-6.04041-6.74331-14.963-4.717-8.923-32.00469-50.06476-47.63614-73.31508-15.63152-23.25011-15.035-24.37126-14.751-26.92045s4.13307-4.66234,4.13307-4.66234S254.60811-.761,256.95855.26581s3.61953,1.06989,15.9581,26.22284,34.35827,69.33928,39.73353,77.88163c5.37545,8.54193,7.538,12.28477,9.59694,13.31369s4.13123,1.82806,2.13527,4.20194a9.40748,9.40748,0,0,1-2.33253,2.08261Z"></path>
        </g>
        <g id="grip">
          <path class="cls-16" d="M319.15811,114.50763a4.38188,4.38188,0,0,1-1.826,1.93481,4.95843,4.95843,0,0,1-2.69323.66465l-20.9704-35.38222a6.32711,6.32711,0,0,0,3.03437-.93466,5.7922,5.7922,0,0,0,2.25274-2.1206Z"></path>
        </g>
      </g>
      <g id="bat-1">
        <g id="bat-2-2" data-name="bat">
          <path class="cls-15" d="M3.583,180.472A9.81859,9.81859,0,0,1,1.154,178.9933c-2.42523-1.93323-.55115-3.12547,1.264-4.54023,1.81514-1.4155,3.19663-5.51131,6.78008-14.94643,3.58364-9.43541,16.44848-57.09841,23.57973-84.192,7.13105-27.09355,8.36682-27.38626,10.46834-28.85685s6.23049.02348,6.23049.02348S53.66661,47.793,54.44819,50.236s1.58754,3.42423-9.14725,29.30232-29.36516,71.59689-32.22822,81.27511c-2.86262,9.6781-4.24432,13.774-3.65683,15.99948s1.35631,4.30922-1.7444,4.37867a9.40751,9.40751,0,0,1-3.10433-.37564Z"></path>
        </g>
        <g id="grip-2" data-name="grip">
          <path class="cls-17" d="M9.76029,172.39556a4.38179,4.38179,0,0,1-2.65879-.093,4.95828,4.95828,0,0,1-2.278-1.58305l12.71332-39.11561a6.32717,6.32717,0,0,0,2.706,1.66084,5.79217,5.79217,0,0,0,3.08015.29063Z"></path>
        </g>
      </g>
    </g>
    <g id="baseball-cap">
      <g id="shadow-2" data-name="shadow" class="cls-18">
        <path d="M230.32511,81.82046a74.56257,74.56257,0,0,0-108.44793,1.15959A268.12753,268.12753,0,0,1,230.32511,81.82046Z"></path>
      </g>
      <g id="button">
        <ellipse class="cls-16" cx="177.49896" cy="26.76408" rx="4.39905" ry="1.78563"></ellipse>
      </g>
      <g id="left">
        <path class="cls-17" d="M152.29036,42.27978c1.87621-4.86114,6.19581-7.9526,10.31751-10.67051a52.62193,52.62193,0,0,1,7.33492-4.23659,106.98,106.98,0,0,0-19.44652,5.253c-7.67673,2.65607-15.72208,5.67718-19.21654,10.42769-5.17674,7.03745-1.80742,29.67559-1.69314,33.21908a185.01015,185.01015,0,0,1,21.66412-2.956C150.86991,65.85894,149.941,48.36685,152.29036,42.27978Z"></path>
      </g>
      <g id="right">
        <path class="cls-17" d="M222.02031,43.05335c-3.49445-4.75051-11.5398-7.77162-19.21653-10.42769a106.98,106.98,0,0,0-19.4465-5.253,52.6222,52.6222,0,0,1,7.33489,4.23659c4.12171,2.71791,8.44131,5.80937,10.31752,10.67051,2.288,5.928,1.46678,22.67176,1.07059,30.43085a110.17676,110.17676,0,0,1,21.63317,3.5618C223.82774,72.72894,227.19706,50.0908,222.02031,43.05335Z"></path>
      </g>
      <g id="centre">
        <path class="cls-19" d="M201.00969,42.27978c-1.87621-4.86114-6.19581-7.9526-10.31752-10.67051a52.6222,52.6222,0,0,0-7.33489-4.23659,56.19008,56.19008,0,0,0-6.70727-.593,56.18979,56.18979,0,0,0-6.70722.593,52.62193,52.62193,0,0,0-7.33492,4.23659c-4.1217,2.71791-8.4413,5.80937-10.31751,10.67051-2.34938,6.08707-1.42045,23.57916-1.03965,31.03669,15.31851-1.351,34.48425-1.9264,50.82957-.60584C202.47647,64.95154,203.29769,48.20782,201.00969,42.27978Z"></path>
      </g>
      <g id="H">
        <path class="cls-20" d="M175.40651,59.9891h-9.44343V56.0133h1.35472v-8.656h-1.38035v-3.9758h9.46906v3.9758h-1.14823v2.5311H179.067v-2.5311h-1.16078v-3.9758h9.45633v3.9758H186.0077v8.656h1.35489v3.9758h-9.45633V56.0133H179.067V53.29111h-4.80876V56.0133h1.14823Z"></path>
      </g>
      <g id="stitch">
        <path class="cls-21" d="M151.2503,73.68561a.36891.36891,0,0,1-.36812-.35029l-.01513-.29406c-.37947-7.42492-1.26815-24.81286,1.07895-30.89432,1.88673-4.88826,6.20128-8.03828,10.45871-10.84575,1.80258-1.18851,3.32876-2.15935,4.91764-3.03325a.3691.3691,0,1,1,.35569.64686c-1.56744.862-3.07938,1.82367-4.86719,3.00262-4.15761,2.74171-8.368,5.81046-10.17618,10.49511-2.2907,5.935-1.40761,23.213-1.03048,30.59107l.01495.29425a.36882.36882,0,0,1-.34974.38722Z"></path>
      </g>
      <g id="stitch-2" data-name="stitch">
        <path class="cls-21" d="M202.08076,73.07946l-.0191-.00054a.369.369,0,0,1-.34992-.38722c.3719-7.28582,1.24292-24.348-1.04616-30.27917-1.808-4.68447-6.01857-7.7534-10.17654-10.49511-1.56582-1.03282-3.39435-2.21881-5.27549-3.22424a.369.369,0,0,1,.34812-.65084c1.90889,1.02022,3.754,2.21719,5.33387,3.25885,4.25743,2.80765,8.57216,5.95767,10.45835,10.84575,2.34566,6.07767,1.46923,23.24957,1.09517,30.58224A.36932.36932,0,0,1,202.08076,73.07946Z"></path>
      </g>
      <g id="peak">
        <path class="cls-16" d="M236.70205,80.16689a1.8472,1.8472,0,0,1-.43209-.05135,246.92946,246.92946,0,0,0-114.755,0,1.84507,1.84507,0,1,1-.86129-3.58822,250.63965,250.63965,0,0,1,116.4776,0,1.84527,1.84527,0,0,1-.4292,3.63957Z"></path>
      </g>
    </g>
    <g id="shades">
      <g id="black-eyes">
        <g>
          <circle class="cls-8" cx="128.49122" cy="111.26539" r="6.81976"></circle>
          <circle class="cls-5" cx="129.77999" cy="109.97662" r="2.27325"></circle>
        </g>
        <g>
          <circle class="cls-8" cx="226.48255" cy="107.32262" r="9.2351"></circle>
          <circle class="cls-5" cx="229.22008" cy="104.58509" r="2.27325"></circle>
        </g>
      </g>
      <g id="glasses">
        <g id="shadow-3" data-name="shadow" class="cls-22">
          <path d="M112.59046,132.10225c3.87914,4.74,9.67682,7.57245,18.2452,8.91308a34.14659,34.14659,0,0,0,5.2631.42317,25.5322,25.5322,0,0,0,18.52924-7.52718,33.80709,33.80709,0,0,0,8.66442-16.77914,35.89713,35.89713,0,0,0,.98494-9.095l-.03567.01153c4.52652-1.71334,4.97851-5.08886,4.71449-7.16415.00275-.00027,2.25147-.13059,7.64629-.13059,5.39537,0,7.6438.13032,7.64655.13059-.26373,2.07529.18827,5.45081,4.71449,7.16384l-.0354-.01122a35.89682,35.89682,0,0,0,.985,9.095,33.80883,33.80883,0,0,0,8.66415,16.77914,25.53256,25.53256,0,0,0,18.52922,7.52718,34.14317,34.14317,0,0,0,5.26283-.42317c8.56865-1.34063,14.36606-4.17306,18.24547-8.91308,3.29814-4.03008,5.20107-9.449,6.16954-17.56979.03518-.29429.07379-.59363.11388-.89746q-.30633-.85064-.63234-1.69172c-.11647.85718-.23363,1.69149-.3287,2.48791-1.67846,14.07189-6.37649,23.0302-23.69959,25.7411a33.14952,33.14952,0,0,1-5.13136.413c-15.20555,0-23.80549-11.52537-26.35827-23.62931a35.37284,35.37284,0,0,1-.94708-8.62712l-.00027.00279c.41028-9.56679,7.761-14.10865,31.24676-15.69379a52.86951,52.86951,0,0,1,14.69563.6707q-1.96263-2.53975-4.137-4.8989c-3.09449-.00459-6.35066.06865-9.70761.25222-18.75535,1.02557-29.39186,4.64888-34.23069,7.76677-.00356,0-3.74987-.12793-11.06517-.12793-7.31477,0-11.06135.12793-11.06518.12793-4.83826-3.11789-15.47534-6.7412-34.23042-7.76677-3.32427-.18181-6.54946-.25524-9.617-.25222q-2.16375,2.34806-4.124,4.87709a53.16027,53.16027,0,0,1,14.59175-.64889c23.486,1.58514,30.83675,6.127,31.24731,15.69379l-.00054-.00279v.00009a35.35865,35.35865,0,0,1-.94708,8.627c-2.55279,12.10394-11.15243,23.62931-26.35828,23.62931a33.15253,33.15253,0,0,1-5.13136-.413c-17.32337-2.7109-22.02113-11.66921-23.69929-25.7411-.093-.77948-.20733-1.59491-.32136-2.43287q-.32674.83868-.63363,1.68677c.03762.28627.07433.56952.10753.84737C107.38913,122.65321,109.29205,128.07217,112.59046,132.10225Z"></path>
        </g>
        <g id="frame">
          <path class="cls-23" d="M221.89834,86.56977c-18.75537,1.02556-29.39188,4.64889-34.2307,7.76675-.00357,0-3.74986-.1279-11.06517-.1279-7.31477,0-11.06134.1279-11.06518.1279-4.83827-3.11786-15.47533-6.74119-34.23042-7.76675a182.36847,182.36847,0,0,0-36.20031,1.6784l.28431,6.89462c7.20335,2.27149,2.55553,10.01739,9.01077,10.5336.45007.03622.859.06369,1.23715.08507l.85074-.01372c-.54118-8.26924,2.01215-16.7992,25.66808-15.202,23.48606,1.58513,30.83677,6.127,31.24733,15.69378l.83675-.28293c4.52651-1.7133,4.9785-5.08882,4.7145-7.16411.00274-.00028,2.25145-.13061,7.64628-.13061,5.39537,0,7.6438.13033,7.64655.13061-.26373,2.07529.18826,5.45081,4.7145,7.16382l.837.28322c.41028-9.56677,7.761-14.10865,31.24678-15.69378,23.6562-1.59721,26.20926,6.93275,25.66808,15.202l.85129.01372c.37817-.02138.78681-.04885,1.23688-.08507,6.455-.51621,1.80742-8.26211,9.01049-10.5336l.28431-6.89462A182.36666,182.36666,0,0,0,221.89834,86.56977Z"></path>
        </g>
        <g id="bolt-left">
          <path class="cls-24" d="M98.203,92.47366c.04527-.5873,1.95477-.91936,4.265-.74153,2.31018.1773,4.14614.79779,4.10141,1.38479-.045.58755-1.95478.91964-4.265.74209S98.15771,93.0615,98.203,92.47366Z"></path>
        </g>
        <g id="bolt-right">
          <path class="cls-24" d="M255.0022,92.47366c-.045-.5873-1.95478-.91936-4.265-.74153-2.31046.1773-4.14643.79779-4.10144,1.38479.04531.58755,1.95453.91964,4.265.74209C253.211,93.68143,255.0475,93.0615,255.0022,92.47366Z"></path>
        </g>
        <g id="gold">
          <path class="cls-25" d="M164.24169,105.9566l-.83676.28289-.00054-.0027v.00009a35.35935,35.35935,0,0,1-.94708,8.627c-2.55279,12.1039-11.15243,23.62931-26.35828,23.62931a33.153,33.153,0,0,1-5.13136-.41307c-17.32337-2.71081-22.02113-11.6692-23.69929-25.741-.24233-2.03-.629-4.30063-.77886-6.59134l-.85074.0137c.10155,1.61834.31834,3.20893.52116,4.69037.095.6943.18469,1.35018.261,1.98853.96821,8.12076,2.87113,13.53976,6.16954,17.5698,3.87914,4.74006,9.67682,7.57249,18.2452,8.91308a34.14655,34.14655,0,0,0,5.2631.42316,25.532,25.532,0,0,0,18.52924-7.52717A33.80708,33.80708,0,0,0,163.29242,115.04a35.89621,35.89621,0,0,0,.98494-9.095Zm82.47372-.20884c-.14931,2.29071-.536,4.56136-.77829,6.59134-1.67846,14.07185-6.37649,23.03024-23.69959,25.74105a33.15,33.15,0,0,1-5.13136.41307c-15.20555,0-23.80549-11.52541-26.35827-23.62931a35.37284,35.37284,0,0,1-.94708-8.62712l-.00027.0027-.837-.28316-.0354-.01126a35.8959,35.8959,0,0,0,.985,9.095,33.80882,33.80882,0,0,0,8.66415,16.77919,25.53239,25.53239,0,0,0,18.52922,7.52717,34.14314,34.14314,0,0,0,5.26283-.42316c8.56865-1.34059,14.36606-4.173,18.24547-8.91308,3.29814-4.03,5.20107-9.449,6.16954-17.5698.07629-.63835.166-1.29423.261-1.98853.20282-1.48144.41934-3.072.52143-4.69037Z"></path>
        </g>
        <g id="lenses" class="cls-26">
          <path class="cls-23" d="M163.40439,106.23688a35.35935,35.35935,0,0,1-.94708,8.627c-2.55279,12.1039-11.15243,23.62931-26.35828,23.62931a33.153,33.153,0,0,1-5.13136-.41307c-17.32337-2.71081-22.02113-11.6692-23.69929-25.741-.24233-2.03-.629-4.30063-.77886-6.59134-.54118-8.26927,2.01216-16.79923,25.6681-15.202,23.486,1.5851,30.83675,6.12705,31.24731,15.69375l-.00054-.0027v.00009Zm82.53273,6.10222c-1.67846,14.07185-6.37649,23.03024-23.69959,25.74105a33.15,33.15,0,0,1-5.13136.41307c-15.20555,0-23.80549-11.52541-26.35827-23.62931a35.37284,35.37284,0,0,1-.94708-8.62712l-.00027.0027c.41028-9.5667,7.761-14.10865,31.24676-15.69375,23.65621-1.59721,26.20928,6.93275,25.6681,15.202C246.5661,108.03847,246.17942,110.30912,245.93712,112.3391Z"></path>
        </g>
      </g>
    </g>
  </g>
</svg>
