<?xml version="1.0" encoding="UTF-8"?>
<!-- Generator: Adobe Illustrator 23.0.4, SVG Export Plug-In . SVG Version: 6.00 Build 0)  -->
<svg xmlns="http://www.w3.org/2000/svg" xmlns:xlink="http://www.w3.org/1999/xlink" id="Layer_1" x="0px" y="0px" viewBox="0 0 416.4 488" style="enable-background:new 0 0 416.4 488;" xml:space="preserve">
<style type="text/css">
	.st0{opacity:0.1;fill:#282D39;enable-background:new    ;}
	.st1{fill-rule:evenodd;clip-rule:evenodd;fill:#FFFFFF;}
	.st2{fill-rule:evenodd;clip-rule:evenodd;fill:#282D39;}
	.st3{fill-rule:evenodd;clip-rule:evenodd;fill:#D5D8EF;}
	.st4{fill-rule:evenodd;clip-rule:evenodd;fill:#FF8B92;}
	.st5{fill:#D5D8EF;}
	.st6{fill:#FFFFFF;}
	.st7{fill:#660099;}
	.st8{fill:#F44E21;}
	.st9{fill:#00CC05;}
	.st10{fill-rule:evenodd;clip-rule:evenodd;fill:#FCF500;}
	.st11{fill-rule:evenodd;clip-rule:evenodd;fill:#F44E21;}
	.st12{fill:#056FF0;}
	.st13{fill:#62EACB;}
</style>
<title>business-hero</title>
<g>
	<g id="homepage-hero">
		<ellipse class="st0" cx="272.5" cy="484.9" rx="52.8" ry="3.1"></ellipse>
		<path class="st1" d="M343.5,31l-171-30.2c-17.5-3-34.1,8.7-37.2,26.1L66.5,417c-3,17.5,8.6,34.2,26.1,37.3l170.9,30.2    c17.5,3,34.1-8.7,37.3-26.1l68.7-390.1C372.6,50.8,361,34.1,343.5,31"></path>
		<path class="st2" d="M296.5,442.5L76.2,403.7l66.2-375.8c2.4-13.5,15.4-22.6,28.9-20.2l15.4,2.7l0,0l23.5,4.1l103.3,18.2l19.4,3.4    v0.2l9.6,1.7c13.5,2.4,22.6,15.3,20.2,28.8c0,0,0,0,0,0.1L296.5,442.5z M343.8,30.7L172.5,0.5c-17.5-3-34.1,8.6-37.2,26.1    L69,402.4l-2.6,14.5c-2.2,13.4,4.1,26.8,15.9,33.6c3.2,1.8,6.6,3.1,10.2,3.7l5.6,1l15,2.7l21.8,3.8l25.9,4.6l27.8,4.9l26.5,4.6    l23.2,4.1l16.9,3l8.2,1.5c13,2.3,26.2-3.5,33.3-14.7c2.2-3.5,3.7-7.4,4.4-11.4l2.5-14.5L369.9,68    C372.9,50.5,361.3,33.8,343.8,30.7z"></path>
		<path class="st3" d="M250.7,57.4c-22.7-4-44.3,11.1-48.3,33.8s11.1,44.3,33.8,48.3c22.6,4,44.3-11.1,48.3-33.7    C288.5,83.1,273.4,61.4,250.7,57.4"></path>
		<path class="st1" d="M238.2,108.1h-0.4l-1.5-0.7c-1.4-0.7-3.1-0.7-4.4,0.2l-0.4,0.4l-0.5,0.4l-0.4,0.5l-0.5,0.5l-0.3,0.5l-0.4,0.5    l-0.3,0.5l-0.3,0.6c-0.1,0.2-0.1,0.4-0.2,0.6c-0.1,0.2-0.2,0.4-0.2,0.6c-0.1,0.2-0.1,0.4-0.2,0.6s-0.1,0.4-0.1,0.6    c-0.8,5.9,24.2,10.3,25.5,4.5c0-0.2,0-0.4,0.1-0.6v-1.9c0-0.2-0.1-0.4-0.1-0.7c0-0.2,0-0.4-0.1-0.6c0-0.2-0.1-0.4-0.2-0.6    c0-0.2-0.1-0.4-0.1-0.6l-0.3-0.6c-0.1-0.2-0.1-0.4-0.2-0.5l-0.3-0.6l-0.3-0.5c-0.9-1.3-2.5-1.9-4-1.7H244l-2-0.3l-1.9-0.4    l-0.5-0.2L238.2,108.1z M258,92.9c-1.1,7-7.7,11.7-14.7,10.6c-0.1,0-0.2,0-0.3-0.1c-7-1.3-11.7-8-10.4-15c1.3-7,8-11.7,15-10.4    C254.6,79.2,259.2,85.9,258,92.9"></path>
		<path class="st4" d="M183.6,437.5c-5-0.9-9.7,2.5-10.6,7.5c-0.9,5,2.5,9.7,7.4,10.5s9.7-2.5,10.6-7.5    C191.9,443.1,188.6,438.3,183.6,437.5L183.6,437.5 M179.8,459.3c-7.1-1.2-11.8-7.9-10.6-15c1.2-7.1,7.9-11.8,15-10.6    c7.1,1.2,11.8,7.9,10.6,15c0,0,0,0.1,0,0.1C193.5,455.8,186.8,460.4,179.8,459.3"></path>
		<path class="st5" d="M206.6,157.7l51.2,9c5.7,1,9.5,6.5,8.5,12.2l0,0c-1,5.7-6.5,9.5-12.2,8.5l-51.2-9c-5.7-1-9.5-6.5-8.5-12.2    l0,0C195.4,160.5,200.9,156.7,206.6,157.7z"></path>
		
			<ellipse transform="matrix(0.1602 -0.9871 0.9871 0.1602 -20.4112 397.1648)" class="st5" cx="223.2" cy="210.6" rx="8.4" ry="8.4"></ellipse>
		<circle class="st5" cx="192.2" cy="205.2" r="8.4"></circle>
		<circle class="st5" cx="254.2" cy="216.1" r="8.4"></circle>
		<path class="st5" d="M150.4,231.9l135,23.8c6.5,1.2,10.9,7.4,9.7,13.9l-23.8,135c-1.2,6.5-7.4,10.9-13.9,9.7l-135-23.8    c-6.5-1.2-10.9-7.4-9.7-13.9l23.8-135C137.6,235.1,143.8,230.8,150.4,231.9z"></path>
		<g>
			<g>
				
					<image style="overflow:visible;opacity:0.1;" width="244" height="180" xlink:href="ADB10481A2725439.png" transform="matrix(1 0 0 1 186 253.3776)">
				</image>
				<g>
					<g>
						<path class="st6" d="M229,374.2l0.8-63.5c0.1-8,6.7-14.4,14.7-14.3l128.3,1.6c8,0.1,14.4,6.7,14.3,14.7l-0.8,63.5        c-0.1,8-6.7,14.4-14.7,14.3l-128.3-1.6C235.3,388.8,228.9,382.2,229,374.2z"></path>
					</g>
				</g>
			</g>
			<path class="st5" d="M248.1,306.8l57.7,0.7c1.5,0,2.8,1.3,2.8,2.8l0,0c0,1.5-1.3,2.8-2.8,2.8l-57.7-0.7c-1.5,0-2.8-1.3-2.8-2.8     l0,0C245.3,308,246.5,306.8,248.1,306.8z"></path>
			<path class="st7" d="M247.8,318.9l26,0.3c1.5,0,2.8,1.3,2.8,2.8l0,0c0,1.5-1.3,2.8-2.8,2.8l-26-0.3c-1.5,0-2.8-1.3-2.8-2.8l0,0     C245,320.1,246.3,318.9,247.8,318.9z"></path>
			<path class="st5" d="M242.8,375.9c-1.5-0.1-2.8-1.3-2.7-2.9c0-0.5,0.2-1.1,0.5-1.5c4.3-6.1,8.9-12.8,13.7-17.9     c2.1-2.2,4.5-4.5,7.6-4.9s8,2.7,11.1,5.7s7.9,7.2,12.9,8.2s12.6-1.7,18.2-4.7s9.9-5.4,13.4-9.7s5.3-9.6,9.7-12.7     c0.7-0.6,1.6-1,2.6-1.1c1.6,0,3.2,0.7,4.2,2c3,3.1,4,7.4,5.5,11.5s4,8.1,8.2,9.1s10.4-3.4,13.2-8.2s5.1-10.4,9.9-13.2     c1.5-0.8,3.4-1.3,4.9-0.4s1.9,3.2,2.1,5.1c0.6,7.9,1.2,15.7,1.9,23.6c0.2,2.6,0.3,8.2-0.7,11.7c-0.4,1.2-1.5,2-2.7,2L242.8,375.9     z"></path>
		</g>
		<g>
			<g>
				
					<image style="overflow:visible;opacity:0.1;" width="208" height="237" xlink:href="ADB10481A272543B.png" transform="matrix(1 0 0 1 0 65.3776)">
				</image>
				<g>
					<path class="st6" d="M55.1,107.4h98.6c6.7,0,12.2,5.5,12.2,12.2v127.7c0,6.7-5.5,12.2-12.2,12.2H55.1       c-6.7,0-12.2-5.5-12.2-12.2V119.6C42.9,112.8,48.4,107.4,55.1,107.4z"></path>
				</g>
			</g>
			<g>
				<g>
					<circle class="st8" cx="73.9" cy="150.9" r="12.9"></circle>
					<path class="st5" d="M102.7,146.8h41c2.3,0,4.1,1.8,4.1,4.1v0c0,2.3-1.8,4.1-4.1,4.1h-41c-2.3,0-4.1-1.8-4.1-4.1v0       C98.6,148.6,100.4,146.8,102.7,146.8z"></path>
					<path class="st1" d="M77.1,147.5c-1.5,1.3-2.9,2.8-4.4,4.2l-1.2-1.2c-0.6-0.6-1.6-0.6-2.2,0l0,0c-0.6,0.5-0.6,1.4-0.1,2       c0,0,0.1,0.1,0.1,0.1l2.4,2.3c0.6,0.6,1.6,0.6,2.2,0l5.4-5.3c0.6-0.6,0.6-1.5,0-2.1l0,0C78.7,146.9,77.7,146.9,77.1,147.5"></path>
				</g>
				<g>
					<circle class="st8" cx="73.9" cy="189.4" r="12.9"></circle>
					<path class="st5" d="M102.7,185.3h41c2.3,0,4.1,1.8,4.1,4.1v0c0,2.3-1.8,4.1-4.1,4.1h-41c-2.3,0-4.1-1.8-4.1-4.1v0       C98.6,187.1,100.4,185.3,102.7,185.3z"></path>
					<path class="st1" d="M77.1,185.9l-4.4,4.2l-1.2-1.1c-0.6-0.6-1.6-0.7-2.2-0.1l0,0c-0.6,0.6-0.6,1.6,0,2.2l2.4,2.2       c0.6,0.6,1.5,0.6,2.2,0.1l5.4-5.3c0.6-0.5,0.6-1.4,0.1-2c0,0-0.1-0.1-0.1-0.1l0,0C78.7,185.4,77.8,185.4,77.1,185.9"></path>
				</g>
				<g>
					<circle class="st8" cx="73.9" cy="227.8" r="12.9"></circle>
					<path class="st5" d="M102.7,223.7h41c2.3,0,4.1,1.8,4.1,4.1v0c0,2.3-1.8,4.1-4.1,4.1h-41c-2.3,0-4.1-1.8-4.1-4.1v0       C98.6,225.5,100.4,223.7,102.7,223.7z"></path>
					<path class="st1" d="M77.1,224.4l-4.4,4.2l-1.2-1.2c-0.6-0.6-1.6-0.6-2.2,0l0,0c-0.6,0.5-0.6,1.4-0.1,2c0,0,0.1,0.1,0.1,0.1       l2.4,2.3c0.6,0.6,1.6,0.6,2.2,0l5.4-5.2c0.6-0.6,0.6-1.6,0-2.2l0,0C78.7,223.8,77.7,223.8,77.1,224.4"></path>
				</g>
			</g>
		</g>
		<g>
			<path class="st9" d="M163.1,49.2c9.1,25-3.8,52.6-28.7,61.7s-52.6-3.8-61.7-28.7c-9.1-24.9,3.7-52.5,28.7-61.7     C126.4,11.4,154,24.2,163.1,49.2z"></path>
			<path class="st1" d="M122.5,71.3c6-0.6,10.4-5.9,9.8-11.9c-0.6-6-5.9-10.4-11.9-9.8c-6,0.6-10.3,5.8-9.8,11.8     C111.1,67.4,116.4,71.8,122.5,71.3C122.4,71.3,122.5,71.3,122.5,71.3z M120.3,41.3c10.6-1.5,20.4,6,21.9,16.6     c1.5,10.6-6,20.4-16.6,21.9c-0.6,0.1-1.2,0.1-1.8,0.2c-2.8,0.3-5.6-0.1-8.2-1L105,88.3c-1.9,1.7-4.9,1.6-6.6-0.3     c-1.4-1.6-1.6-3.8-0.5-5.6l7.4-12.1c-1.4-2.4-2.2-5.1-2.5-7.9C101.8,51.7,109.6,42.3,120.3,41.3z"></path>
		</g>
		<path class="st10" d="M309.1,251.9c-9.7,21.4-0.2,46.7,21.2,56.4c21.4,9.7,46.7,0.2,56.4-21.2c9.6-21.3,0.3-46.4-20.9-56.2    C344.3,221,318.9,230.4,309.1,251.9z"></path>
		<path class="st11" d="M358.5,281.3c2.4,1,3.7,3.7,2.9,6.2c-0.9,2.6-3.6,4-6.2,3.1c-0.2-0.1-0.3-0.1-0.5-0.2h-0.3    c-1.4-0.7-3.1-0.7-4.6-0.2c-1.5,0.6-3.3,0.6-4.8-0.1c-1.5-0.7-2.7-2-3.2-3.6c-0.6-1.5-1.7-2.7-3.1-3.4l-11.1-5.1    c-2.5-1.2-3.6-4.2-2.4-6.7c0.1-0.1,0.1-0.2,0.2-0.3c1.4-2.2,4.2-3.1,6.6-1.9l10.8,5c1.4,0.7,3.1,0.7,4.6,0.2    c3.2-1.2,6.8,0.3,8,3.5c0,0.1,0,0.1,0.1,0.2C356,279.4,357.1,280.6,358.5,281.3z M340.9,249.8c1.5,0.6,3.1,0.7,4.6,0.1    c1.6-0.6,3.3-0.6,4.8,0.2c1.5,0.7,2.6,2,3.2,3.5c0.5,1.5,1.7,2.7,3.1,3.4l10.8,5.1c2.5,1,3.7,3.7,2.9,6.2    c-0.8,2.5-3.5,3.9-6.1,3.1c-0.2-0.1-0.4-0.2-0.6-0.3l-11.1-5.1c-1.5-0.7-3.1-0.7-4.6-0.1c-1.6,0.5-3.3,0.5-4.8-0.2    c-1.5-0.7-2.7-2-3.3-3.6c-0.5-1.5-1.6-2.7-3-3.4h-0.3c-2.5-1.2-3.6-4.2-2.4-6.7c0.1-0.1,0.1-0.2,0.2-0.3    C335.7,249.4,338.5,248.6,340.9,249.8z"></path>
		<g>
			<path class="st12" d="M121.5,340.9c-4.7,26.8-30.3,44.7-57.1,40c-26.8-4.7-44.7-30.3-40-57.1c4.7-26.8,30.3-44.7,57.1-40     c0,0,0,0,0,0c26.8,4.7,44.7,30.1,40,56.9C121.5,340.8,121.5,340.8,121.5,340.9z"></path>
			<path class="st6" d="M90.2,315.6l-39.5,6c-1.6,0.3-2.7,1.8-2.5,3.5c0.1,0.7,0.5,1.3,1,1.7l4.9,4.3c0.6,0.5,1,1.3,1,2.1l0.9,10.5     c0,1.6,1.4,2.9,3,2.8c0.6,0,1.2-0.2,1.7-0.6l2.8-2c1.2-0.8,2.7-0.7,3.8,0.2l10,8.6c1.3,1.1,3.1,0.9,4.2-0.3     c0.3-0.3,0.4-0.6,0.6-1l11.4-31.8c0.6-1.6-0.2-3.3-1.8-3.9C91.2,315.5,90.7,315.5,90.2,315.6z M84.3,321.8L64.7,335h-0.1     l-3.9,4.9c-0.4,0.4-1,0.2-1-0.3l0.2-8.4c0-0.9,0.6-1.7,1.4-2l22.5-8.4C84.4,320.6,84.8,321.5,84.3,321.8z"></path>
		</g>
		<g>
			<path class="st13" d="M416.4,127.1c0,25.6-20.8,46.4-46.4,46.4c-25.6,0-46.4-20.8-46.4-46.4c0-25.6,20.8-46.4,46.4-46.4     c0,0,0,0,0,0C395.6,80.7,416.4,101.5,416.4,127.1z"></path>
			<path class="st2" d="M370.2,145.3l6.9-1.2c1.3-0.2,2.5,0.7,2.8,2c0.1,0.4,0,0.9-0.2,1.3c-0.9,2-2.8,3.4-4.9,3.8     c-2.1,0.4-4.3-0.3-5.8-1.8c-1-0.9-1-2.4-0.1-3.4C369.3,145.6,369.7,145.4,370.2,145.3 M366.4,100.8c-2.7,0.3-4.7,2.8-4.4,5.5     c0,0.1,0,0.2,0.1,0.3l0.4,2.4c-5.5,3.1-8.5,9.4-7.4,15.6l0.8,4c0.4,2.6-0.2,5.2-1.7,7.4l-0.6,0.8c-1.1,1.6-1.1,3.8,0,5.4     c1.2,1.5,3,2.2,4.9,1.9l29.7-5.3c2.5-0.3,4.2-2.6,3.9-5.1c0-0.1,0-0.2-0.1-0.3v-0.2c-0.2-1.1-0.8-2.1-1.6-2.8l-1.7-1.4     c-1.9-1.5-3.1-3.6-3.5-5.9l-0.7-3.7c-1.1-6.2-6-11.1-12.2-12.1l-0.4-2.2C371.4,102.4,369.1,100.6,366.4,100.8"></path>
		</g>
	</g>
</g>
</svg>
