<svg height="325" width="440" xmlns="http://www.w3.org/2000/svg"><path d="M110.936 106.928c-76.841 19.079-69.554-99.68-.034-106.56 72.18-7.169 55.534 92.718.034 106.56zm4.334 78.892c-22.081-23.009-65.4 1.378-65.858 30.115-.386 20.52 35.484 27.746 48.766 17.208 9.884-7.806 28.204-35.722 17.092-47.323zm-52.315-56.216c43.021-9.262 100.431 22.525 93.467 71.09-4.813 33.315-36.782 97.204-78.498 88.5-43.82-9.141-80.795-37.122-77.748-87.045 1.427-23.082 40.53-67.72 62.779-72.545zM315.85 254.4c71.961-5.069 40.363-123.626-9.429-137.471-75.85-21.08-74.912 143.652 9.43 137.47zm114.782 20.819c-43.79 76.762-185.75 57.935-225.864-10.133-41.356-70.23-55.059-182.564 19.297-236.379 66.438-48.098 158.709 24.37 192.604 81.626 19.164 32.655 33.6 130.442 13.963 164.886z" fill-rule="evenodd" opacity=".1"/></svg>