<svg height="529" width="480" xmlns="http://www.w3.org/2000/svg"><path d="M221.864 156.528c3.946-1.733 4.538-4.334 2.27-8.254-5.288-9.122-13.91-15.722-21.762-22.735-12.824-11.466-24.05-24.528-35.138-37.649-2.387-2.837-4.834-5.713-7.97-7.644-3.138-1.95-7.182-2.837-10.595-1.36-1.184.493-2.27 1.3-2.861 2.444-.632 1.142-.69 2.502-.73 3.802-.632 23.306-1.243 46.612-1.874 69.919-.158 5.398-.296 10.855.02 16.253.236 4.334 4.241 7.526 8.522 6.738 4.301-.808 8.583-1.95 12.824-3.074 5.367-1.438 10.773-2.856 16.12-4.353 9.331-2.601 18.604-5.399 27.7-8.708a220.475 220.475 0 0 0 13.474-5.379zm71.973 11.072c5.445 9.339 4.005 15.584-5.446 19.701a521.324 521.324 0 0 1-32.178 12.885c-21.742 7.92-43.918 14.578-66.212 20.784-12.824 3.566-25.667 6.994-38.511 10.402-10.16 2.7-20.36 5.398-30.66 7.33-10.239 1.93-19.788-5.734-20.38-16.097-.75-12.904-.414-25.906-.059-38.83 1.5-55.695 3.019-111.39 4.538-167.104.079-3.113.197-6.364 1.657-9.122 1.44-2.68 4.084-4.63 6.905-5.812 8.129-3.487 17.776-1.379 25.313 3.251 7.517 4.65 13.357 11.525 19.058 18.243 26.497 31.364 53.329 62.63 83.949 89.994 18.782 16.805 39.36 32.586 52.026 54.375zm-188.83 230.91c2.027 1.45 4.676 3.04 6.802 1.77 1.547-.935 1.963-2.946 2.202-4.747.883-6.76 1.319-13.62 3.114-20.203 1.954-7.104 5.44-13.658 8.119-20.512.679-1.77 1.318-3.592 1.423-5.485.127-1.894-.353-3.898-1.653-5.305-4.178-4.517-9.924-1.332-14.468.269a301.85 301.85 0 0 1-20.623 6.543 310.923 310.923 0 0 1-11.906 3.05c-2.06.485-4.131.959-6.035 1.889-1.892.94-3.597 2.417-4.386 4.368-.814 2.056-.52 4.409.43 6.407.782 1.646 1.965 3.04 3.167 4.385a127.293 127.293 0 0 0 23.218 20.472c3.493 2.405 7.131 4.636 10.595 7.1zm38.444 52.927c-.738 5.473-2.022 11.648-6.741 14.496-6.531 3.921-14.633-.938-20.834-5.361-10.585-7.554-21.666-14.365-32.382-21.712a389.572 389.572 0 0 1-70.989-62.56c-3.682-4.144-7.32-8.44-9.712-13.44-2.915-6.093-3.764-13.361-1.28-19.603 2.403-5.994 7.653-10.484 13.429-13.353 5.798-2.871 12.16-4.32 18.46-5.82a921.053 921.053 0 0 0 36.44-9.35 951.001 951.001 0 0 0 63.116-20.015c13.84-4.934 31.453-14.691 44.246-.858 3.948 4.282 5.395 10.407 5.053 16.191-.352 5.797-2.311 11.362-4.411 16.767-8.168 20.993-18.854 41.073-24.83 62.81-5.533 20.124-6.84 41.118-9.565 61.808zm130.097 24.357c4.669-3.219 1.46-9.274-1.05-12.874-8.151-11.654-18.463-21.829-28.501-31.835-3.011-2.975-6.296-6.102-10.464-6.742-1.551-.23-3.36 0-4.35 1.22-.638.763-.836 1.785-1.003 2.776a1061.11 1061.11 0 0 0-7.97 49.834c-.243 1.846-.426 3.92.715 5.385.76.961 1.962 1.464 3.148 1.785 3.94 1.068 8.107.64 12.152.03 7.863-1.19 15.59-3.081 23.118-5.583 4.06-1.357 10.722-1.57 14.205-3.996zm44.405-7.72c6.598 9.48 15.072 25.48 2.8 33.983-9.186 6.385-26.678 6.95-37.347 10.53-19.807 6.63-40.16 11.597-60.815 14.752-10.608 1.63-21.594 2.758-31.944-.061-3.117-.854-6.295-2.164-8.293-4.724-3.01-3.871-2.511-9.327-1.86-14.203a2799.046 2799.046 0 0 1 20.927-131.602c.469-2.59.999-5.288 2.648-7.33 2.633-3.216 7.354-3.825 11.44-3.2 10.97 1.676 19.641 9.935 27.525 17.799 26.406 26.408 53.507 53.26 74.919 84.057zm96.331-145.308c1.283-1.837 1.914-4.05 1.973-6.203.08-3.536-1.144-6.993-2.328-10.391-7.596-22.027-13.377-44.528-19.435-66.95-.572-2.134-1.164-4.287-2.446-6.203-1.243-1.897-3.275-3.517-5.742-3.892-2.525-.395-5.13.593-7.044 2.074-1.933 1.462-3.295 3.418-4.656 5.334-4.163 5.907-8.307 11.774-12.45 17.681-9.412 13.394-18.863 26.788-27.505 40.577-2.407 3.832-4.774 7.744-6.195 11.952-.592 1.857-1.006 3.793-1.144 5.729-.296 4.01 2.9 7.487 6.886 7.882 5.366.494 10.733.85 16.12 1.087 13.081.592 26.182.671 39.264 1.52 6.373.396 12.785.949 19.08 1.897 2.88.455 3.965.257 5.622-2.094zm59.824 8.06c2.999 8.653 6.116 17.464 5.88 26.492-.139 5.492-1.698 11.142-4.993 15.843-4.222 6.006-6.964 6.48-14.344 5.354-16.1-2.45-32.417-3.852-48.695-4.9-33.364-2.133-66.828-2.31-100.212-3.851-13.713-.613-27.425-1.462-41.079-2.766-10.2-.988-18.35-9.917-17.62-20.15.356-4.92 1.401-9.819 2.98-14.56 3.571-10.747 9.609-20.723 15.765-30.541 22.078-35.184 46.15-69.34 70.201-103.517 10.576-15.014 21.151-30.067 31.747-45.1 3.433-4.88 6.945-9.839 11.858-13.612 4.933-3.793 11.562-6.302 17.994-5.294 6.294.968 11.484 5.096 14.68 9.936 3.196 4.84 4.715 10.372 6.215 15.844 15.469 57.171 30.188 114.58 49.623 170.822z" fill-rule="evenodd" opacity=".1"/></svg>