<?xml version="1.0"?>
<svg xmlns="http://www.w3.org/2000/svg" id="Flat" height="512px" viewBox="0 0 512 512" width="512px" class=""><g><path d="m352 232h-.0001a129.7687 129.7687 0 0 0 -109.83665 121.06146l-2.16325 38.93854-96 16 8 48h176z" fill="#3ea7ff" data-original="#3EA7FF" class=""/><path d="m352 232-50.96765 61.16118a80 80 0 0 0 -14.051 77.64278l41.01865 117.19604h136l17.00045-170.00447a88 88 0 0 0 -59.73523-92.24046l-5.26522-1.75507z" fill="#65dcff" data-original="#65DCFF" class="active-path" data-old_color="#65dcff" style="fill:#82DDF9"/><path d="m481 318-17 170h-88l-5.89-39.24a334.60224 334.60224 0 0 1 -3.67005-45.58q-.10491-8.475.23-16.94a334.35615 334.35615 0 0 1 49.33005-162.24l5.27 1.76a87.9948 87.9948 0 0 1 59.73 92.24z" fill="#3ea7ff" data-original="#3EA7FF" class=""/><path d="m352 408-9.37437 3.74975a64.51022 64.51022 0 0 0 -38.62563 44.25025h72z" fill="#ffc7cc" data-original="#FFC7CC" class="" data-old_color="#ffc7cc" style="fill:#F7CACE"/><path d="m464 488 8-80-100.803 48 4.803 32z" fill="#2b7cd4" data-original="#2B7CD4" class=""/><path d="m416 224 11.828 3.94268a88 88 0 0 1 60.172 83.48413v112.57319l-112 32-24-48 72-24v-72z" fill="#3ea7ff" data-original="#3EA7FF" class=""/><path d="m424 312v66.23a7.99111 7.99111 0 0 1 -5.47 7.59l-52.09009 17.36q-.10491-8.475.23-16.94l41.33009-13.77v-60.47z" fill="#2b7cd4" data-original="#2B7CD4" class=""/><circle cx="432" cy="168" fill="#eacf4d" r="32" data-original="#EACF4D" class=""/><path d="m281.34375 228.4375-16-24a8.00018 8.00018 0 0 1 1.65869-10.68457l53.82129-43.05713 9.99512 12.49414-48.09375 38.47506 11.93115 17.89746z" fill="#808080" data-original="#808080"/><path d="m454.7 133.7a66.39136 66.39136 0 0 1 -51.63989 39.58l-11.25 1.6-7.81011 1.12-16 24-48 8-16-56h-16l15.53-72.48a66.43547 66.43547 0 0 1 47.46-50.15l8.47-2.31a80.605 80.605 0 0 1 72.82 15.84 66.36975 66.36975 0 0 1 21.34 32.77l3.89 13.63a66.34907 66.34907 0 0 1 -2.81 44.4z" fill="#ffc7cc" data-original="#FFC7CC" class="" data-old_color="#ffc7cc" style="fill:#F7CACE"/><path d="m454.7 133.7a66.39136 66.39136 0 0 1 -51.63989 39.58l-11.25 1.6-7.81011-46.88-76.4-61.12a66.36842 66.36842 0 0 1 43.39-37.51l8.47-2.31a80.605 80.605 0 0 1 72.82 15.84 66.36975 66.36975 0 0 1 21.34 32.77l3.89 13.63a66.34907 66.34907 0 0 1 -2.81 44.4z" fill="#f2e368" data-original="#F2E368" class=""/><path d="m416 224-64 8 3.42-13.69 4.23-16.92.35-1.39 8.55-2.43 15.45-29.57 22.51 4.27z" fill="#ffc7cc" data-original="#FFC7CC" class="" data-old_color="#ffc7cc" style="fill:#F7CACE"/><path d="m328 136h-8a8 8 0 0 1 0-16h8a8 8 0 0 1 0 16z" fill="#808080" data-original="#808080"/><path d="m389.66992 196.34-10.27992 15.42a7.99081 7.99081 0 0 1 -5.34 3.45l-18.63013 3.1 4.2301-16.92 8.35003-1.39 8.36-12.54z" fill="#fe99a0" data-original="#FE99A0" class=""/><path d="m416 24-7.31 73.12-1.5 14.95h-38.38l-1.5-14.95-7.31-73.12z" fill="#808080" data-original="#808080"/><path d="m408.68994 97.12-1.5 14.95h-38.37988l-1.5-14.95a28.02895 28.02895 0 0 1 41.37988 0z" fill="#4d4d4d" data-original="#4D4D4D"/><circle cx="388" cy="124" fill="#808080" r="28" data-original="#808080"/><path d="m256 456h-186.88314a16 16 0 0 1 -15.68929-12.86214l-25.6-128a16 16 0 0 1 15.68929-19.13786h180.48314z" fill="#e6e6e6" data-original="#E6E6E6" class="" data-old_color="#e6e6e6" style="fill:#E6E6E6"/><rect fill="#ccc" height="32" rx="16" width="200" x="56" y="456" data-original="#CCC" class="" data-old_color="#ccc" style="fill:#E9CCCC"/><rect fill="#b3b3b3" height="32" rx="16" width="200" x="240" y="456" data-original="#B3B3B3" class="" data-old_color="#b3b3b3" style="fill:#DBBFBF"/><g fill="#ccc"><path d="m264.80353 437.2338-25.72429-128.62144a15.68928 15.68928 0 0 0 -15.3846-12.61236 15.68928 15.68928 0 0 0 -15.38464 18.7662l25.7243 128.62144a15.68928 15.68928 0 0 0 15.3846 12.61236 15.68928 15.68928 0 0 0 15.38463-18.7662z" data-original="#000000" class="" style="fill:#D9C4C4" data-old_color="#000000"/><circle cx="120" cy="376" r="24" data-original="#000000" class="" style="fill:#D9C4C4" data-old_color="#000000"/></g></g> </svg>
