<?xml version="1.0"?>
<svg xmlns="http://www.w3.org/2000/svg" xmlns:xlink="http://www.w3.org/1999/xlink" version="1.1" id="Capa_1" x="0px" y="0px" viewBox="0 0 512 512" style="enable-background:new 0 0 512 512;" xml:space="preserve" width="512px" height="512px" class=""><g><path style="fill:#B3B3B3;" d="M258.408,497.166l-25.242-8.414V319.683h-15.223v174.555c0,3.276,2.096,6.185,5.204,7.221  l30.446,10.149c3.988,1.329,8.3-0.826,9.628-4.815C264.547,502.805,262.396,498.494,258.408,497.166z" data-original="#B3B3B3" class=""/><path style="fill:#CCCCCC;" d="M131.808,497.166l25.242-8.414V319.683h15.223v174.555c0,3.276-2.096,6.185-5.204,7.221  l-30.446,10.149c-3.988,1.329-8.3-0.826-9.628-4.815C125.669,502.805,127.82,498.494,131.808,497.166z" data-original="#CCCCCC" class=""/><polygon style="fill:#808080;" points="413.304,187.75 413.304,289.237 484.345,258.791 484.345,187.75 " data-original="#808080" class=""/><polygon style="fill:#999999;" points="393.007,187.75 393.007,258.791 453.899,289.237 453.899,187.75 " data-original="#999999" class=""/><path style="fill:#353535;" d="M484.345,258.791h-30.446l15.223,189.78h30.446V299.046  C499.568,283.608,493.813,269.523,484.345,258.791z" data-original="#353535" class=""/><path style="fill:#4F4F4F;" d="M453.899,258.791h-60.892v189.78h76.115V299.046C469.122,283.608,463.367,269.523,453.899,258.791z" data-original="#4F4F4F" class=""/><rect x="316.892" y="180.139" style="fill:#9DB55F;" width="121.784" height="15.223" data-original="#9DB55F" class=""/><g>
	<rect x="195.108" y="235.956" style="fill:#FF8646;" width="121.784" height="15.223" data-original="#FF8646" class=""/>
	<rect x="73.324" y="235.956" style="fill:#FF8646;" width="121.784" height="15.223" data-original="#FF8646" class=""/>
</g><path style="fill:#353535;" d="M461.51,339.978v148.773l-25.242,8.414c-3.987,1.329-6.139,5.641-4.814,9.627  c1.329,3.988,5.641,6.144,9.628,4.815l30.446-10.149c3.109-1.036,5.204-3.946,5.204-7.221v-154.26H461.51z" data-original="#353535" class=""/><path style="fill:#4F4F4F;" d="M400.618,339.978v148.773l-25.242,8.414c-3.987,1.329-6.139,5.641-4.814,9.627  c1.329,3.988,5.641,6.144,9.628,4.815l30.446-10.149c3.109-1.036,5.204-3.946,5.204-7.221v-154.26H400.618z" data-original="#4F4F4F" class=""/><path style="fill:#49C9FF;" d="M50.49,279.086v209.665l25.242,8.414c3.987,1.329,6.139,5.641,4.814,9.627  c-1.329,3.988-5.641,6.144-9.628,4.815l-30.446-10.149c-3.109-1.036-5.204-3.946-5.204-7.221V279.086H50.49z" data-original="#49C9FF"/><path style="fill:#2DADE3;" d="M111.382,279.086v209.665l25.242,8.414c3.987,1.329,6.139,5.641,4.814,9.627  c-1.329,3.988-5.641,6.144-9.628,4.815l-30.446-10.149c-3.109-1.036-5.204-3.946-5.204-7.221V279.086H111.382z" data-original="#2DADE3" class=""/><path style="fill:#116F97;" d="M380.192,497.166l-25.242-8.414V279.086h-15.223v215.152c0,3.276,2.096,6.185,5.204,7.221  l30.446,10.149c3.988,1.329,8.3-0.826,9.628-4.815C386.331,502.805,384.18,498.494,380.192,497.166z" data-original="#116F97" class=""/><path style="fill:#1990C2;" d="M253.592,497.166l25.242-8.414V279.086h15.223v215.152c0,3.276-2.096,6.185-5.204,7.221  l-30.446,10.149c-3.988,1.329-8.3-0.826-9.628-4.815C247.453,502.805,249.604,498.494,253.592,497.166z" data-original="#1990C2" class=""/><path style="fill:#353535;" d="M481.737,76.115l-43.061,15.223V45.669C458.557,45.669,475.475,58.375,481.737,76.115z" data-original="#353535" class=""/><path style="fill:#4F4F4F;" d="M453.026,76.115l-14.35,15.223l-42.909-15.223l-0.142-0.051c6.282-17.709,23.19-30.395,43.051-30.395  C445.303,45.669,450.935,58.375,453.026,76.115z" data-original="#4F4F4F" class=""/><path style="fill:#2DADE3;" d="M98.696,167.453H68.25v121.784l50.743-30.446V187.75C118.993,176.54,109.906,167.453,98.696,167.453z  " data-original="#2DADE3" class=""/><path style="fill:#49C9FF;" d="M68.25,167.453H47.952c-11.21,0-20.297,9.087-20.297,20.297v101.487h60.892V187.75  C88.547,176.54,79.46,167.453,68.25,167.453z" data-original="#49C9FF"/><polygon style="fill:#FF4128;" points="118.993,258.791 88.547,258.791 58.101,304.46 88.547,350.129 118.993,350.129 " data-original="#FF4128"/><path style="fill:#FF6337;" d="M88.547,258.791H27.655c-9.468,10.732-15.223,24.818-15.223,40.255v51.083h76.115V258.791z" data-original="#FF6337" class=""/><path style="fill:#696969;" d="M446.287,184.574v135.109c0,4.204,3.407,7.612,7.612,7.612c4.205,0,7.611-3.408,7.611-7.612V184.574  H446.287z" data-original="#696969" class=""/><path style="fill:#353535;" d="M438.676,91.338l15.223,113.533c11.153-2.7,21.728-8.403,30.446-17.121V91.338H438.676z" data-original="#353535" class=""/><path style="fill:#4F4F4F;" d="M393.007,91.338v96.412c16.522,16.522,39.742,22.226,60.892,17.121V91.338H393.007z" data-original="#4F4F4F" class=""/><path style="fill:#DF864F" d="M481.737,76.115h-28.711l-14.35,60.892c25.219,0,45.669-20.45,45.669-45.669  C484.345,86,483.431,80.875,481.737,76.115z" data-original="#C27749" class="" data-old_color="#C27749"/><path style="fill:#E18F4E" d="M453.026,76.115c0.568,4.76,0.873,9.885,0.873,15.223c0,25.219-6.82,45.669-15.223,45.669  c-25.219,0-45.669-20.45-45.669-45.669c0-5.358,0.924-10.494,2.618-15.274l0.142,0.051H453.026z" data-original="#E18F4E" class="" data-old_color="#E18F4E"/><circle style="fill:#60312C;" cx="73.324" cy="22.834" r="22.834" data-original="#60312C" class=""/><path style="fill:#A45E43;" d="M108.088,61.739c0.01-0.01-34.764-0.005-34.764-0.005v75.273c25.219,0,45.669-20.45,45.669-45.669  C118.993,80.053,114.888,69.706,108.088,61.739z" data-original="#A45E43" class=""/><path style="fill:#DF864F" d="M87.421,74.095L38.56,61.739c-6.8,7.967-10.905,18.313-10.905,29.599  c0,25.219,20.45,45.669,45.669,45.669c8.403,0,15.223-20.45,15.223-45.669C88.547,85.239,88.151,79.413,87.421,74.095z" data-original="#C27749" class="" data-old_color="#C27749"/><path style="fill:#40211D;" d="M73.324,45.669l14.096,28.426c7.561-2.263,14.69-6.389,20.668-12.356  C99.716,51.905,87.248,45.669,73.324,45.669z" data-original="#40211D" class=""/><g>
	<path style="fill:#60312C;" d="M73.324,45.669c-13.924,0-26.392,6.236-34.764,16.07c13.234,13.234,32.115,17.359,48.861,12.356   C85.157,57.421,79.697,45.669,73.324,45.669z" data-original="#60312C" class=""/>
	<path style="fill:#60312C;" d="M195.108,101.487v91.338c25.222,0,45.669-20.447,45.669-45.669S220.33,101.487,195.108,101.487z" data-original="#60312C" class=""/>
</g><path style="fill:#85453D;" d="M210.331,147.156c0-25.222-6.816-45.669-15.223-45.669c-25.222,0-45.669,20.447-45.669,45.669  s20.447,45.669,45.669,45.669C203.515,192.825,210.331,172.378,210.331,147.156z" data-original="#85453D" class=""/><path style="fill:#B3B3B3;" d="M195.108,274.014v91.338c25.222,0,45.669-20.447,45.669-45.669L195.108,274.014z" data-original="#B3B3B3" class=""/><path style="fill:#CCCCCC;" d="M210.331,319.683l-15.223-45.669l-45.669,45.669c0,25.222,20.447,45.669,45.669,45.669  C203.515,365.352,210.331,344.905,210.331,319.683z" data-original="#CCCCCC" class=""/><path style="fill:#FF6337;" d="M220.48,223.271h-30.446l20.297,96.412h30.446v-76.115  C240.777,232.358,231.69,223.271,220.48,223.271z" data-original="#FF6337" class=""/><path style="fill:#FF8646;" d="M190.034,223.271h-20.297c-11.21,0-20.297,9.087-20.297,20.297v76.115h60.892v-76.115  C210.331,232.358,201.244,223.271,190.034,223.271z" data-original="#FF8646" class=""/><path style="fill:#116F97;" d="M316.892,258.791v76.115c25.222,0,45.669-20.447,45.669-45.669L316.892,258.791z" data-original="#116F97" class=""/><path style="fill:#1990C2;" d="M332.115,289.237l-15.223-30.446l-45.669,30.446c0,25.222,20.447,45.669,45.669,45.669  C325.299,334.906,332.115,314.459,332.115,289.237z" data-original="#1990C2" class=""/><path style="fill:#9DB55F;" d="M342.264,167.453h-30.446l20.297,121.784h30.446V187.75  C362.561,176.54,353.474,167.453,342.264,167.453z" data-original="#9DB55F" class=""/><path style="fill:#B9D171;" d="M311.818,167.453H291.52c-11.21,0-20.297,9.087-20.297,20.297v101.487h60.892V187.75  C332.115,176.54,323.028,167.453,311.818,167.453z" data-original="#B9D171" class=""/><path style="fill:#1E1C1C" d="M316.892,45.669V148.17l45.669-46.684V91.338C362.561,66.115,342.114,45.669,316.892,45.669z" data-original="#FFB4A9" class="" data-old_color="#FFB4A9"/><path style="fill:#322E2D" d="M316.892,45.669c-25.222,0-45.669,20.447-45.669,45.669v10.149l60.892,46.684V91.338  C332.115,66.115,325.299,45.669,316.892,45.669z" data-original="#FFD9D4" class="active-path" data-old_color="#FFD9D4"/><path style="fill:#FF6337;" d="M335.879,101.487c-1.069-1.596-2.337-3.047-3.764-4.324l-15.223,70.291  c25.222,0,45.669-20.447,45.669-45.669v-20.297H335.879z" data-original="#FF6337" class=""/><path style="fill:#FF8646;" d="M332.115,121.784V97.162c-4.04-3.619-9.372-5.824-15.223-5.824c-7.917,0-14.89,4.03-18.987,10.149  h-26.682v20.297c0,25.222,20.447,45.669,45.669,45.669C325.299,167.453,332.115,147.006,332.115,121.784z" data-original="#FF8646" class=""/><path style="fill:#A45E43;" d="M58.101,327.294c-4.205,0-7.611-3.408-7.611-7.612V197.899c0-4.204,3.407-7.611,7.611-7.611  s7.611,3.408,7.611,7.611v121.784C65.713,323.886,62.306,327.294,58.101,327.294z" data-original="#A45E43" class=""/></g> </svg>
