<svg height="512pt" viewBox="-99 0 512 512" width="512pt" xmlns="http://www.w3.org/2000/svg"><path d="m227.636719 413.621094c-8.359375 0-15.136719-6.777344-15.136719-15.140625v-30.152344c0-5.421875 2.898438-10.429687 7.597656-13.128906 39.308594-22.578125 63.726563-64.734375 63.726563-110.011719 0-69.902344-56.871094-126.773438-126.773438-126.773438-69.90625 0-126.777343 56.871094-126.777343 126.773438 0 45.277344 24.421874 87.429688 63.726562 110.011719 4.699219 2.699219 7.597656 7.707031 7.597656 13.125v30.15625c0 8.359375-6.777344 15.140625-15.136718 15.140625-8.359376 0-15.140626-6.78125-15.140626-15.140625v-21.6875c-44.207031-28.867188-71.320312-78.5-71.320312-131.605469 0-86.597656 70.453125-157.050781 157.050781-157.050781 86.601563 0 157.050781 70.453125 157.050781 157.050781 0 53.109375-27.113281 102.742188-71.324218 131.609375v21.683594c0 8.363281-6.777344 15.140625-15.140625 15.140625zm0 0" fill="#feeb70"/><path d="m206.09375 258.421875c0-8.359375-6.777344-15.136719-15.140625-15.136719-8.359375 0-15.136719 6.777344-15.136719 15.136719 0 10.347656-8.417968 18.769531-18.769531 18.769531-10.347656 0-18.769531-8.417968-18.769531-18.769531 0-8.359375-6.777344-15.136719-15.136719-15.136719-8.363281 0-15.140625 6.777344-15.140625 15.136719 0 21.761719 14.253906 40.25 33.910156 46.644531v93.414063c0 8.363281 6.777344 15.140625 15.136719 15.140625 8.363281 0 15.136719-6.777344 15.136719-15.140625v-93.414063c19.65625-6.394531 33.910156-24.882812 33.910156-46.644531zm0 0" fill="#feeb70"/><path d="m157.050781 512c-47.269531 0-85.730469-38.457031-85.730469-85.726562v-27.792969c0-8.359375 6.78125-15.136719 15.140626-15.136719h141.179687c8.359375 0 15.136719 6.777344 15.136719 15.136719v27.792969c0 47.269531-38.457032 85.726562-85.726563 85.726562zm-55.453125-98.378906v12.652344c0 30.574218 24.875 55.449218 55.453125 55.449218 30.574219 0 55.449219-24.875 55.449219-55.449218v-12.652344zm0 0" fill="#0074f0"/><g fill="#feeb70"><path d="m157.050781 56.851562c-8.359375 0-15.136719-6.777343-15.136719-15.136718v-26.578125c0-8.359375 6.777344-15.136719 15.136719-15.136719s15.136719 6.777344 15.136719 15.136719v26.578125c0 8.359375-6.777344 15.136718-15.136719 15.136718zm0 0"/><path d="m100.308594 66.089844c-6.113282 0-11.871094-3.730469-14.160156-9.789063l-9.398438-24.859375c-2.953125-7.824218.988281-16.558594 8.808594-19.515625 7.820312-2.953125 16.558594.988281 19.511718 8.808594l9.398438 24.859375c2.953125 7.824219-.988281 16.558594-8.808594 19.515625-1.761718.664063-3.570312.980469-5.351562.980469zm0 0"/><path d="m213.789062 66.089844c-1.777343 0-3.585937-.316406-5.347656-.980469-7.820312-2.957031-11.761718-11.695313-8.808594-19.515625l9.394532-24.859375c2.957031-7.820313 11.691406-11.761719 19.511718-8.808594 7.820313 2.957031 11.765626 11.691407 8.808594 19.511719l-9.394531 24.859375c-2.289063 6.058594-8.046875 9.792969-14.164063 9.792969zm0 0"/></g></svg>