<?xml version="1.0" encoding="UTF-8"?>
<svg xmlns="http://www.w3.org/2000/svg" height="65" width="63">
  <g fill="none" fill-rule="evenodd">
    <path d="M1.342 36.437a6.59 6.59 0 0 0 0-7.933 6.59 6.59 0 0 1-1.014-6.037 6.697 6.697 0 0 1 4.404-4.302c2.84-.876 4.762-3.488 4.73-6.426a6.62 6.62 0 0 1 2.784-5.45 6.796 6.796 0 0 1 6.111-.905 6.793 6.793 0 0 0 2.15.352 6.762 6.762 0 0 0 5.497-2.803C27.267 1.173 29.316.126 31.5.126s4.233 1.047 5.496 2.807a6.762 6.762 0 0 0 5.497 2.803 6.793 6.793 0 0 0 2.15-.352 6.796 6.796 0 0 1 6.14.899 6.62 6.62 0 0 1 2.782 5.482c-.024 2.922 1.883 5.517 4.703 6.4a6.697 6.697 0 0 1 4.392 4.296 6.59 6.59 0 0 1-1.002 6.025 6.59 6.59 0 0 0 0 7.933 6.59 6.59 0 0 1 1.014 6.037 6.697 6.697 0 0 1-4.404 4.303c-2.84.875-4.762 3.487-4.73 6.425a6.62 6.62 0 0 1-2.78 5.483 6.796 6.796 0 0 1-6.142.899c-2.819-.938-5.927.062-7.646 2.46a6.762 6.762 0 0 1-5.497 2.806 6.762 6.762 0 0 1-5.496-2.807c-1.72-2.397-4.828-3.397-7.647-2.46a6.796 6.796 0 0 1-6.14-.898 6.62 6.62 0 0 1-2.782-5.483c.04-2.924-1.857-5.531-4.676-6.425A6.697 6.697 0 0 1 .34 42.462a6.59 6.59 0 0 1 1.002-6.025z" fill="#609" fill-rule="nonzero"></path>
    <path d="M41.779 26.877h-7.886a1.016 1.016 0 0 1-.98-1.273l1.02-3.988c.404-1.574-.562-3.122-2.144-3.44h-.002c-1.582-.32-3.206.708-3.608 2.281l-1.975 7.716-.002.01c-.057.18-.096.368-.096.567v10.151c0 1.808 1.455 3.273 3.252 3.273h8.828a3.11 3.11 0 0 0 2.885-1.966l3.593-9.04c.817-2.056-.687-4.291-2.885-4.291M20.93 41.329a2.94 2.94 0 0 1-2.93-2.95v-7.114a2.942 2.942 0 0 1 2.931-2.95 2.94 2.94 0 0 1 2.93 2.951v7.113a2.94 2.94 0 0 1-2.93 2.95" fill="#fff"></path>
  </g>
</svg>
