<?xml version="1.0" encoding="UTF-8"?>
<svg xmlns="http://www.w3.org/2000/svg" height="58" width="45">
  <path d="M27.793 31.732c-2.646.51-4.922-1.808-4.421-4.501.279-1.495 1.48-2.72 2.95-3.003 2.647-.51 4.924 1.807 4.423 4.5-.279 1.497-1.482 2.72-2.952 3.004M40.35 6.522L24.733 1.184c-3.512-1.2-7.144 1.457-7.144 5.227v45.5c0 3.803 3.692 6.463 7.216 5.202l15.616-5.597c2.17-.776 3.62-2.86 3.62-5.2V11.75c0-2.369-1.486-4.473-3.692-5.228m-29.587 36.07H7.728a2.09 2.09 0 0 1-2.085-2.097v-23a2.645 2.645 0 0 1 2.636-2.653h2.483c1.327 0 2.592-.84 2.907-2.137.452-1.863-.956-3.544-2.737-3.544h-5.5C-.07 9.16 0 13.56 0 13.56v30.32s-.061 4.327 5.313 4.392h5.62c1.78 0 3.188-1.68 2.736-3.542-.315-1.3-1.58-2.139-2.907-2.139" fill="#00cc05" fill-rule="evenodd"></path>
</svg>
