<?xml version="1.0" encoding="UTF-8"?>
<svg xmlns="http://www.w3.org/2000/svg" height="56" width="41">
  <g fill="#609" fill-rule="evenodd">
    <path d="M33.237 40.24c-.03.456-.373.878-.827.878H8.53c-.454 0-.796-.422-.825-.878-.692-11.225-.748-20.766.052-31.492a.94.94 0 0 1 .823-.865c8.083-.952 15.7-.952 23.782 0a.94.94 0 0 1 .822.865c.92 12.028.773 19.614.053 31.492m-12.71 12.465a4.116 4.116 0 0 1-4.112-4.123 4.112 4.112 0 1 1 8.224 0 4.118 4.118 0 0 1-4.111 4.123m19.79-46.472c-.16-2.674-2.178-4.861-4.817-5.218a111.792 111.792 0 0 0-30.06 0C2.8 1.372.783 3.559.623 6.233c-.852 14.325-.81 30.044 0 43.698.16 2.676 2.179 4.864 4.818 5.22 8.3 1.123 21.737 1.127 30.06 0 2.639-.356 4.657-2.544 4.818-5.22a370.097 370.097 0 0 0 0-43.698"></path>
    <path d="M22.878 17.557c-1.93 1.375-2.395 3.254-2.395 3.254s-.466-1.88-2.396-3.254c-3.172-2.264-9.041.489-5.778 7.612 2.413 5.271 6.93 8.414 8.174 8.414 1.245 0 5.76-3.143 8.175-8.414 3.263-7.123-2.607-9.876-5.78-7.612"></path>
  </g>
</svg>
