<?xml version="1.0" encoding="UTF-8"?>
<svg xmlns="http://www.w3.org/2000/svg" height="58" width="58">
  <g fill="none" fill-rule="evenodd" transform="translate(-4 -4)">
    <circle cx="32.945" cy="32.945" fill="red" r="28.493"></circle>
    <path d="M16.47 38.643l5.962.048a2.705 2.705 0 0 0 2.744-2.717l-.024-4.439c1.835-.414 4.24-.688 7.392-.662 3.166.026 5.589.339 7.44.786l.024 4.436c.008 1.513 1.249 2.75 2.772 2.762l5.963.049a2.706 2.706 0 0 0 2.744-2.718l-.006-1.054a2.743 2.743 0 0 0-.368-1.358 5.897 5.897 0 0 0-.062-.173c-.49-1.31-1.36-2.556-2.515-3.607-3.221-2.929-8.612-4.444-16.02-4.505-7.7-.063-13.185 1.478-16.308 4.58-1.231 1.222-1.861 2.458-2.183 3.437-.215.39-.336.839-.334 1.318l.006 1.054c.008 1.514 1.249 2.751 2.772 2.763z" fill="#fff" fill-rule="nonzero"></path>
  </g>
</svg>
