<?xml version="1.0" encoding="UTF-8"?>
<svg xmlns="http://www.w3.org/2000/svg" width="58" height="61">
  <path d="M43.313 34.636c-2.342 0-4.239-2.104-4.239-4.697 0-2.595 1.897-4.698 4.24-4.698 2.341 0 4.24 2.103 4.24 4.698 0 2.593-1.899 4.697-4.24 4.697m13.178-.709l-1.314-.596c-.2-4.856-2.414-9.308-6.006-12.857.54-4.136 3.836-4.913 3.32-7.136-.316-1.348-1.82-2.283-3.193-2.112-4.56.567-6.919 2.706-7.932 3.952-4.053-1.845-8.75-2.906-13.766-2.906-8.106 0-15.395 2.76-20.445 7.15l-5.019-2.099A1.347 1.347 0 0 0 .28 18.73l1.326 7.996C.57 29.015 0 31.482 0 34.055c0 6.277 3.372 11.933 8.758 15.907-.117.25-.21.516-.264.802l-1.066 5.523a3.395 3.395 0 0 0 3.333 4.037h4.044a3.392 3.392 0 0 0 3.071-1.949l1.613-3.426c.01-.02.013-.044.023-.067 2.56.618 5.274.953 8.09.953 1.77 0 3.5-.137 5.178-.388l1.326 2.816a3.59 3.59 0 0 0 3.248 2.061h3.682a3.59 3.59 0 0 0 3.525-4.27l-.834-4.328c4.071-2.319 7.314-5.486 9.297-9.18l.563.217a1.793 1.793 0 0 0 2.354-1.135l1.717-5.454a1.793 1.793 0 0 0-1.166-2.247M18.36 8.996c3.25-.654 9.026-2.803 16.604-.198 1.374.472 2.587-1.126 2.083-2.49C36.027 3.553 33.52.003 27.377 0 19.73-.001 17.331 4.309 16.58 7.12c-.29 1.088.677 2.098 1.781 1.876" fill="#056FF0" fill-rule="evenodd"></path>
</svg>
