<?xml version="1.0" encoding="UTF-8"?>
<svg xmlns="http://www.w3.org/2000/svg" width="40" height="52">
  <path d="M13.37 20.958h19.452c3.945 0 7.178 3.213 7.178 7.202l-2.022 16.796A8 8 0 0 1 30.036 52H11.123a8 8 0 0 1-7.862-6.52L0 28.16c0-3.767 2.904-6.815 6.52-7.147v-6.76C6.52 7.164 11.617.792 18.63.072c7.295-.743 13.582 4.462 14.677 11.378l.004.027c.011.073.025.144.033.218.02.15.034.303.034.459 0 1.92-1.54 3.475-3.438 3.475-1.738 0-3.172-1.306-3.401-3a.093.093 0 0 0-.008.005c-.003-.014-.008-.027-.01-.041a6.574 6.574 0 0 0-7.233-5.596c-3.452.388-5.918 3.601-5.918 7.092v6.87zM20 30a3 3 0 0 0-3 3v6a3 3 0 0 0 6 0v-6a3 3 0 0 0-3-3z" fill="#00CC05" fill-rule="evenodd"></path>
</svg>
