<?xml version="1.0" encoding="UTF-8"?>
<svg xmlns="http://www.w3.org/2000/svg" height="64" width="53">
  <g fill="none" fill-rule="evenodd">
    <path d="M27.592 63.753C53.627 54.72 53.22 33.5 52.937 18c0-1.588-.058-3.137-.058-4.622v-1.55a1.802 1.802 0 0 0-1.8-1.8h-1.566c-8.771 0-15.15-2.402-20.683-7.793l-1.083-1.052a1.798 1.798 0 0 0-2.51 0l-1.076 1.052c-5.54 5.39-11.918 7.792-20.683 7.792H1.924a1.8 1.8 0 0 0-1.8 1.801v1.556c0 1.485 0 3.028-.057 4.622C-.23 33.5-.636 54.726 25.399 63.758a3.35 3.35 0 0 0 2.193-.006z" fill="#00cc05" fill-rule="nonzero"></path>
    <path d="M32.017 25.928a372.865 372.865 0 0 0-8.216 7.933l-2.309-2.235c-1.132-1.096-2.989-1.15-4.123-.056l-.041.04c-1.129 1.097-1.074 2.893.055 3.989l4.42 4.29c1.136 1.102 2.982 1.13 4.142.052a346.53 346.53 0 0 0 10.271-9.946 2.803 2.803 0 0 0-.05-4.009l-.013-.011c-1.136-1.1-2.978-1.128-4.136-.047" fill="#fff"></path>
  </g>
</svg>
