<?xml version="1.0" encoding="UTF-8"?>
<svg xmlns="http://www.w3.org/2000/svg" width="45" height="56">
  <path d="M24.21 41.39c-7.33 0-13.264-5.977-13.264-13.379 0-7.394 5.935-13.403 13.263-13.403 7.32 0 13.25 5.996 13.25 13.39 0 7.4-5.93 13.392-13.25 13.392m12.896-29.26C36.319 3.12 33.686 0 24.177 0 14.59 0 12.025 3.227 11.251 12.177a20.548 20.548 0 0 0-6.634 10.395C1.742 23.204.154 23.33.18 28c-.026 4.662 1.526 4.785 4.437 5.43a20.559 20.559 0 0 0 6.574 10.335C11.998 53.265 14.791 56 24.12 56c9.294 0 12.11-2.683 12.928-12.09a20.564 20.564 0 0 0 7.482-15.912 20.572 20.572 0 0 0-7.424-15.868M30.96 28.119l-3.923-2.304-.957-5.565c-.363-2.102-3.426-2.105-3.784 0l-1.29 7.488-.013.08-.009.046a2.517 2.517 0 0 0 2.144 2.85l6.568.945c2.067.305 3.083-2.472 1.264-3.54" fill="#609" fill-rule="evenodd"></path>
</svg>
