<?xml version="1.0" encoding="UTF-8"?>
<svg xmlns="http://www.w3.org/2000/svg" xmlns:xlink="http://www.w3.org/1999/xlink" id="homepage-hero" width="439.3" height="403.8">
  <defs>
    <style>.cls-1{fill:none}.cls-18{opacity:.1}.cls-3{fill:#ff505a}.cls-7{fill:#3c3250}.cls-8{fill:#fff}.cls-11{fill:#271c3c}.cls-12{fill:#e6aa5a}.cls-13{fill:#ff8e94}.cls-15{fill:#292c38}.cls-21{fill:#32323c}.cls-24{fill:#6c0}.cls-25{fill:#326eff}.cls-28{fill:#1e1e66}.cls-29{fill:#006cff}.cls-30{fill:#ebebeb}.cls-31{fill:#3c3c3b}.cls-32{fill:#a95100}.cls-33{fill:#ffbe00}.cls-37{fill:#8b8987}.cls-38{fill:#a140a1}.cls-39{fill:#3282ff}.cls-40{fill:#820082}</style>
    <linearGradient id="linear-gradient" x1="164.85" y1="68.49" x2="217.27" y2="98.97" gradientUnits="userSpaceOnUse">
      <stop offset=".22" stop-color="#ff505a"></stop>
      <stop offset="1" stop-color="#aa0046"></stop>
    </linearGradient>
    <linearGradient id="linear-gradient-2" x1="431.2" y1="57.09" x2="376.86" y2="94.8" xlink:href="#linear-gradient"></linearGradient>
    <clipPath id="clip-path">
      <path class="cls-1" d="M326.2 128.3a17.9 17.9 0 0 1 35.7 0z"></path>
    </clipPath>
    <clipPath id="clip-path-2">
      <path class="cls-1" d="M231.5 128.3a17.9 17.9 0 0 1 35.8 0z"></path>
    </clipPath>
    <linearGradient id="linear-gradient-3" x1="272.75" y1="79.1" x2="272.75" y2="205.67" gradientTransform="matrix(1 0 -.21 1 43.67 .76)" xlink:href="#linear-gradient"></linearGradient>
  </defs>
  <ellipse cx="219.3" cy="388.5" rx="213.3" ry="6" style="isolation:isolate" opacity=".1" fill="#282d39"></ellipse>
  <g id="Foxy">
    <path id="body" class="cls-3" d="M298.6 164.4a64.1 64.1 0 0 0-46 61.5v48.6h92v-48.6a64.1 64.1 0 0 0-46-61.5z"></path>
    <path class="cls-3" d="M374.5 231.7c0-30.8-27.5-40.5-42.1-41.3l-.5 9.7a46.9 46.9 0 0 1 16.8 4.8c10.7 5.5 16.1 14.5 16.1 26.8s-4.5 19.2-8.9 22.8a12.6 12.6 0 0 0-5.2-4.6 4.7 4.7 0 0 0-6.5 3.9v16.4a4.3 4.3 0 0 0 3.4 4.3 7 7 0 0 0 3.8-.1c4.1-1 6.7-5 7.1-9.7 7.9-4.8 16-14.8 16-33zm-128.3 18.2a12.3 12.3 0 0 0-5.3 4.6c-4.4-3.6-8.8-10.3-8.8-22.8 0-29.3 31.5-31.5 32.8-31.6l-.5-9.7c-14.5.8-42.1 10.5-42.1 41.3 0 18.2 8.1 28.2 16 33 .5 4.7 3.1 8.7 7.1 9.7a7 7 0 0 0 3.8.1 4.1 4.1 0 0 0 3.4-4.3v-16.4a4.6 4.6 0 0 0-6.4-3.9z"></path>
  </g>
  <path id="head" class="cls-3" d="M390.2 110.2c0 37.7-8.4 65.2-92 65.2-71.1 0-94-27.5-94-65.2a42.1 42.1 0 0 1 2.8-15.8c.4-.9-.5.9 0 0 10.8-20.8 44.4-26.3 90.2-26.3 50.8 0 85 3.5 91.8 31.1a46.3 46.3 0 0 1 1.2 11z"></path>
  <g id="fox-ears">
    <path d="M204.2 110.2a42.1 42.1 0 0 1 2.8-15.8c-.5.9.4-.9 0 0 5.7-11 17.8-17.7 34.7-21.6-14.3-9-45.5-19.3-63.2-18.7-19.3.6-29.9-1.9-22.5 21.5s16.7 39.7 51.9 58a71.3 71.3 0 0 1-3.7-23.4zm206.4-65.9c-19.1 1.1-51.2 14.7-66.8 26 24.7 3.2 40.8 10.9 45.2 28.9a46.3 46.3 0 0 1 1.2 11 114.1 114.1 0 0 1-2.1 24c35.5-23.3 44.1-43 49.6-68.3 5.9-26.8-5.7-22.9-27.1-21.6z" fill="#b1005a"></path>
    <path d="M204.2 110.2a42.1 42.1 0 0 1 2.8-15.8c-.5.9.4-.9 0 0 4.5-8.6 12.9-14.6 24.5-18.7a149.2 149.2 0 0 0-33.8-11.9 90.5 90.5 0 0 0-17.1-2.5 106.4 106.4 0 0 0-18.7.7 1.5 1.5 0 0 0-.9 1.6c.3 5.8 2.6 11.6 4.7 17a75.1 75.1 0 0 0 7.5 15c7.9 12.1 19.7 20.9 32.1 28a83.6 83.6 0 0 1-1.1-13.4z" fill="url(#linear-gradient)"></path>
    <path d="M431 53c-.1-.6-.5-1.5-1.3-1.6a121.4 121.4 0 0 0-20.8 1.1 101.8 101.8 0 0 0-18.7 4.5 173 173 0 0 0-34.3 15.4c17.8 4.1 29.4 11.9 33.1 26.8a46.3 46.3 0 0 1 1.2 11c0 4.3-.1 8.6-.5 12.7 12.4-8.9 23.8-19.5 31-33a89.8 89.8 0 0 0 6.8-17.4c1.7-6.2 3.7-13 3.5-19.5z" fill="url(#linear-gradient-2)"></path>
  </g>
  <g id="suit">
    <path id="jacket" class="cls-7" d="M298.6 164.4a64.1 64.1 0 0 0-46 61.5v48.6h92v-48.6a64.1 64.1 0 0 0-46-61.5z"></path>
    <path id="shirt" class="cls-8" d="M298.6 164.4c-13.5 7.8-23.4 32.4-23.4 61.5v48.6H322v-48.6c0-29.1-9.9-53.7-23.4-61.5z"></path>
    <path id="arm-r" class="cls-7" d="M333.7 189h-1.5l-.6 12.5h1.4a48.3 48.3 0 0 1 16.2 4.7c10.1 5.2 15.3 13.8 15.3 25.5 0 8.6-2.2 15.3-6.4 19.9l-.9 1 8.9 8.9 1-1c6.5-7 10-17 10-28.8 0-31.9-28.4-41.9-43.4-42.7z"></path>
    <path id="arm-l" class="cls-7" d="M263.6 189c-15 .8-43.4 10.8-43.4 42.7 0 11.8 3.5 21.8 10 28.8l1 1 8.9-8.9-.9-1c-4.3-4.6-6.4-11.3-6.4-19.9 0-27.9 30.2-30.1 31.5-30.2h1.4l-.7-12.6z"></path>
    <g id="tie">
      <path fill="#0c9" d="M301.6 220.6h-8.8l-2.8-14.9h14.4l-2.8 14.9z"></path>
      <path fill="#5adebd" d="M301.6 220.6h-8.8l-5.6 32.3 9.9 11.4 10.2-11.4-5.7-32.3z"></path>
    </g>
  </g>
  <g id="trousers">
    <path id="leg-right" class="cls-11" d="M308.8 281.9h9.2v94.55h-9.2z"></path>
    <path id="leg-left" class="cls-11" d="M279.2 281.9h9.2v94.55h-9.2z"></path>
    <path id="pants" class="cls-11" d="M344.7 276a42.3 42.3 0 0 1-2.1 9.2c-2.1 5.9-6.3 11.3-12.1 13.5-3.5 1.3-7.2 1.3-10.9 1.3-17.6.1-30.3-1.8-47.9-2.5-4.8-.2-19.2-4.6-19.2-19.9v-7.4l92.2-.8z"></path>
    <path class="cls-7" d="M290.1 374.8a14.1 14.1 0 0 0-19.8 0v2.2a25.8 25.8 0 0 1-11.2 3.5l-3.7.2a4.3 4.3 0 0 0-3.9 3.9.8.8 0 0 0 .6.8l11 2.8a14.2 14.2 0 0 0 4.2.5 15.9 15.9 0 0 0 5.7-1l5.4-1.9v2.1a.8.8 0 0 0 .8.8h10.1a.8.8 0 0 0 .8-.8v-13.1z"></path>
    <rect class="cls-12" x="267.9" y="374.5" width="7.8" height="3.35" rx=".6"></rect>
    <path class="cls-7" d="M306.6 374.8a14.1 14.1 0 0 1 19.8 0v2.2a26.2 26.2 0 0 0 11.2 3.5l3.7.2a4.4 4.4 0 0 1 4 3.9 1 1 0 0 1-.6.8l-11 2.8a15.1 15.1 0 0 1-4.2.5 15.6 15.6 0 0 1-5.7-1l-5.5-1.9v2.1a.7.7 0 0 1-.8.8h-10a.8.8 0 0 1-.9-.8v-13.1z"></path>
    <rect class="cls-12" x="321.1" y="374.5" width="7.8" height="3.35" rx=".6"></rect>
  </g>
  <g id="tash">
    <path class="cls-13" d="M393.1 143c-36.3 19.9-90.1-7.3-90.1-7.3v38.7c20.7 27.6 53.6 12.6 53.6 12.6a39.9 39.9 0 0 1-19.3-6.3c30.8.4 39.4-13.8 39.4-13.8a32.7 32.7 0 0 1-11.8-.3c18.1-6.1 29.6-17 28.2-23.6zm-191.8 0c36.4 19.9 90.2-7.3 90.2-7.3v38.7C270.8 202 237.8 187 237.8 187a39.5 39.5 0 0 0 19.3-6.3c-30.8.4-39.4-13.8-39.4-13.8a32.7 32.7 0 0 0 11.8-.3c-18.1-6.1-29.5-17-28.2-23.6z" id="tash-2" data-name="tash"></path>
  </g>
  <g id="reading-glasses">
    <g id="normal-eyes">
      <g clip-path="url(#clip-path)">
        <path class="cls-8" d="M326.2 128.3a17.9 17.9 0 0 1 35.7 0z"></path>
        <circle class="cls-15" cx="338.9" cy="124.7" r="5.7"></circle>
      </g>
      <g clip-path="url(#clip-path-2)">
        <path class="cls-8" d="M231.5 128.3a17.9 17.9 0 0 1 35.8 0z"></path>
        <circle class="cls-15" cx="242" cy="124.7" r="5.7"></circle>
      </g>
      <path id="eyebrow-right" class="cls-13" d="M387.5 115.6a24.7 24.7 0 0 1 6.8 4.9s5.4-38.2-40.3-38.3c-10.2-.1-39.2 3-39.2 3l6.4 4.1 6.2 7.8s20.7 3.2 32.5 9.1l8.6 4.9a63.1 63.1 0 0 1 19.8 19.4c2.4-2.1 2.2-7.9-.8-14.9z"></path>
      <path id="eyebrow-left" class="cls-13" d="M244.4 84.6c-29.2-2.7-35.1 27.2-35.1 27.2a34.7 34.7 0 0 1 7-6.1c-6.8 9.3-8.8 18.5-5.8 21.4 16.8-23.6 52.6-28.9 52.6-28.9z"></path>
      <path class="cls-13" d="M235.1 84.9s20.4-3.5 30.7 3.3l-.9 3s.8-2.4 7.7 5.7c0 0-9.5.2-25.8 5.5z"></path>
      <g id="nose">
        <path id="nose-2" data-name="nose" d="M273.7 205.7c-11.6 0-19.7-8.5-18.9-19.9l6.8-106.2h78.1l-38.6 106.2c-4.1 11.4-15.7 19.9-27.4 19.9z" fill="url(#linear-gradient-3)"></path>
        <path id="nostril-2" class="cls-3" d="M256.8 196.2c.7 1 2.2-1.2 2.4-2.7s.1-.9.1-1.4.1-.4.1-.6c.1-2.8-2.6-5.5-4.6-4.8 0 0-.2 6 2 9.5z"></path>
        <path id="nostril-1" class="cls-3" d="M287.5 194.1c10.5-11.9-2.2-9.2-5.9-5.5l-.3.3-1 1.1c-3.4 3.7 2 9 5.7 5.6l1-1z"></path>
      </g>
    </g>
    <path id="frame" class="cls-18" d="M402 107.5c-.6-1.4-5.3-1.8-15.9-4.2-17.2-3.8-38.4-4.4-52.5-2.3s-22.7 6.9-26.3 7.8a43.3 43.3 0 0 1-8.7.9 43.9 43.9 0 0 1-8.7-.9c-3.5-.9-12.1-5.8-26.2-7.8s-35.3-1.5-52.6 2.3c-10.6 2.4-15.3 2.8-15.9 4.2s-.9 9.4.6 10.4 2.5 1.4 3.7 3 6 19.9 9.3 25.5 11.1 14.9 34.1 13.7 27.5-5.2 30.9-7.2c10.4-6.1 14.2-27.9 15.4-31.7.7-2.2 1.8-5.6 9.4-5.3s8.8 3.1 9.5 5.3c1.1 3.8 5 25.6 15.3 31.7 3.4 2 8 6 31 7.2s30.8-8.1 34.1-13.7 8.1-23.9 9.3-25.5 2.2-1.9 3.6-3 1.2-9.1.6-10.4zm-128.7 40.7c-5.9 5.7-19.8 9-30.3 9.3s-23.1-2-28.6-7.6-7.5-16.2-8.4-22.8-1.3-15.2 4.4-18.3 19.9-6.2 35.3-6.4c11.2-.1 30.4 2 36.7 9.3s-1.8 29.2-9.1 36.5zm118-21.1c-.9 6.6-3 17.2-8.4 22.8s-18.2 7.9-28.7 7.6-24.4-3.6-30.2-9.3c-7.4-7.3-15.8-28.8-9.1-36.5s25.5-9.4 36.7-9.3c15.3.2 29.5 3.3 35.2 6.4s5.4 11.6 4.5 18.3z"></path>
    <path id="lenses" d="M273.3 144.5c-5.9 5.7-19.8 9-30.3 9.3s-23.1-1.9-28.6-7.5-7.5-16.3-8.4-22.9-1.3-15.2 4.4-18.3 19.9-6.2 35.3-6.3c11.2-.2 30.4 1.9 36.7 9.2s-1.8 29.3-9.1 36.5zm118-21.1c-.9 6.6-3 17.2-8.4 22.9s-18.2 7.8-28.7 7.5-24.4-3.6-30.2-9.3c-7.4-7.2-15.8-28.7-9.1-36.5s25.5-9.4 36.7-9.2c15.3.1 29.5 3.2 35.2 6.3s5.4 11.7 4.5 18.3z" opacity=".4" fill="#fff"></path>
    <path id="frame-2" data-name="frame" class="cls-11" d="M402 103.8c-.6-1.4-5.3-1.8-15.9-4.2-17.2-3.8-38.4-4.4-52.5-2.3s-22.7 6.9-26.3 7.8a43.3 43.3 0 0 1-8.7.9 43.9 43.9 0 0 1-8.7-.9c-3.5-.9-12.1-5.8-26.2-7.8s-35.3-1.5-52.6 2.3c-10.6 2.4-15.3 2.8-15.9 4.2s-.9 9.4.6 10.4 2.5 1.4 3.7 3 6 19.9 9.3 25.5 11.1 14.9 34.1 13.7 27.5-5.2 30.9-7.2c10.4-6 14.2-27.9 15.4-31.7.7-2.2 1.8-5.6 9.4-5.3s8.8 3.1 9.5 5.3c1.1 3.8 5 25.7 15.3 31.7 3.4 2 8 6.1 31 7.2s30.8-8.1 34.1-13.7 8.1-23.9 9.3-25.5 2.2-1.9 3.6-3 1.2-9.1.6-10.4zm-128.7 40.7c-5.9 5.7-19.8 9-30.3 9.3s-23.1-1.9-28.6-7.5-7.5-16.3-8.4-22.9-1.3-15.2 4.4-18.3 19.9-6.2 35.3-6.3c11.2-.2 30.4 1.9 36.7 9.2s-1.8 29.3-9.1 36.5zm118-21.1c-.9 6.6-3 17.2-8.4 22.9s-18.2 7.8-28.7 7.5-24.4-3.6-30.2-9.3c-7.4-7.2-15.8-28.7-9.1-36.5s25.5-9.4 36.7-9.2c15.3.1 29.5 3.2 35.2 6.3s5.4 11.7 4.5 18.3z"></path>
  </g>
  <g id="bowler-hat">
    <path id="inside" d="M361.1 60.6l-1.6-.2A605.2 605.2 0 0 0 225 65.3l-1.4.3.2 5.8 137.5-5z" fill="#161622"></path>
    <path id="hat" class="cls-21" d="M343 57.6l-100 3.6-.3-9.2c-1-27.6 14.4-50.5 42-51.5L297 0c27.6-1 44.6 20.8 45.6 48.4z"></path>
    <path id="band" fill="#262631" d="M344.1 71.2l-101.2 3.7-.5-14.2L343.6 57l.5 14.2z"></path>
    <path id="rim" class="cls-21" d="M357.1 72.3A334.9 334.9 0 0 1 228.2 77a8.4 8.4 0 0 1-7-9.7 327.1 327.1 0 0 0 142.3-5.2 8.4 8.4 0 0 1-6.4 10.2z"></path>
    <path id="rim-top" d="M363.5 62.1a327.1 327.1 0 0 1-142.3 5.2 2.1 2.1 0 0 1 2.6-1.8 324.2 324.2 0 0 0 136.9-5 2.4 2.4 0 0 1 2.8 1.6z" fill="#46464f"></path>
  </g>
  <path class="cls-24" d="M138.9 207.9s2.3-32.2-40.5-13.3l-15.6 9.8z"></path>
  <path id="torso" class="cls-24" d="M117.3 293.9H84.9l-6.9 43h46.2l-6.9-43z"></path>
  <path id="arms" class="cls-24" d="M58.9 358.7h-.8a4.5 4.5 0 0 1-3.6-5.3c2.7-14.2 8.7-27.1 16.7-36.3S90.4 302 101.6 302c20.7 0 39.2 18.9 46 47a4.5 4.5 0 0 1-3.3 5.4 4.6 4.6 0 0 1-5.4-3.3c-5.8-24-20.8-40.1-37.3-40.1s-33.4 18.1-38.3 44.1a4.5 4.5 0 0 1-4.4 3.6z"></path>
  <path id="shadow" class="cls-18" d="M84.9 293.9l-1.3 8.5a56.2 56.2 0 0 0 17.5 2.7 57.3 57.3 0 0 0 17.6-2.7l-1.4-8.5z"></path>
  <circle id="head-2" data-name="head" class="cls-24" cx="101.1" cy="247.1" r="54.4"></circle>
  <g id="t-shirt">
    <path class="cls-25" d="M83 305.6c-2.6 1.1-8.1 5.8-11.8 9.9-.9 1-1.7 2.1-2.6 3.2l8.5 8.5q1.4-1.6 3-3.3l-2.1 13h46.2l-2.2-14c1.2 1.2 2.4 2.4 3.6 3.8l8.5-8.5a51.2 51.2 0 0 0-15-13.1s-14.3 9.3-36.1.5z"></path>
    <path fill="#79a0ff" d="M118.8 317.9H107l.8-3.3H118l.8 3.3z"></path>
    <path fill="#5f8eff" d="M118.3 324.6l-5.6 2.6-5.2-2.6v-6.7h10.8v6.7z"></path>
    <path class="cls-25" d="M107.5 317.9h10.8v1.02h-10.8z"></path>
  </g>
  <g id="trainers">
    <g id="legs-feet">
      <path id="leg-right-2" data-name="leg-right" class="cls-28" d="M91.1 351h7.8v28.67h-7.8z"></path>
      <path id="leg-right-3" data-name="leg-right" class="cls-28" d="M103.3 351h7.8v28.67h-7.8z"></path>
    </g>
    <path id="upper-jeans" class="cls-28" d="M78 336.9a23 23 0 0 0 23.1 23.1 23 23 0 0 0 23.1-23.1z"></path>
    <g id="trainers-2" data-name="trainers">
      <path class="cls-29" d="M122.4 379.2a11 11 0 0 0-8.2-3.6h-2.6a6.5 6.5 0 0 1-5.7 3.3h-3v7.9h14.2a11.1 11.1 0 0 1 5.3-7.6z"></path>
      <path class="cls-30" d="M122.4 379.2a11.1 11.1 0 0 0-5.3 7.6h8.3a10.8 10.8 0 0 0-3-7.6z"></path>
      <rect class="cls-31" x="102.6" y="386.8" width="23.1" height="1.98" rx=".3" transform="rotate(-180 114.15 387.75)"></rect>
      <path class="cls-31" d="M118 375.7c-.2-.2-.5-.2-.6 0l-1.5 1.5a.4.4 0 0 0 0 .6h.5l1.6-1.5a.6.6 0 0 0 0-.6zm1.6.8a.6.6 0 0 0-.6 0l-1.7 1.7a.4.4 0 0 0 0 .6h.6l1.7-1.7a.6.6 0 0 0 0-.6zm1.4 1a.3.3 0 0 0-.5 0l-1.8 1.8a.3.3 0 0 0 0 .5h.5l1.8-1.8a.3.3 0 0 0 0-.5zm-15.1 1.8h-3a.4.4 0 0 1 0-.8h3a6.3 6.3 0 0 0 5.4-3.1c.1-.2.3-.3.5-.1a.4.4 0 0 1 .2.5 7.1 7.1 0 0 1-6.1 3.5z"></path>
      <circle class="cls-8" cx="107.3" cy="382.8" r="2.3"></circle>
      <circle class="cls-29" cx="107.3" cy="382.8" r="1.5"></circle>
      <path class="cls-29" d="M79.8 379.2a11 11 0 0 1 8.2-3.6h2.6a6.5 6.5 0 0 0 5.7 3.3h2.9v7.9H85.1a11.1 11.1 0 0 0-5.3-7.6z"></path>
      <path class="cls-30" d="M79.8 379.2a11.1 11.1 0 0 1 5.3 7.6h-8.3a10.8 10.8 0 0 1 3-7.6z"></path>
      <rect class="cls-31" x="76.5" y="386.8" width="23.1" height="1.98" rx=".3"></rect>
      <path class="cls-31" d="M84.2 376.3l1.5 1.5h.6a.4.4 0 0 0 0-.6l-1.5-1.5a.4.4 0 0 0-.6 0 .6.6 0 0 0 0 .6zm-1.6.8l1.7 1.7h.6a.4.4 0 0 0 0-.6l-1.7-1.7a.4.4 0 0 0-.6.6zm-1.4.9l1.8 1.8h.5a.3.3 0 0 0 0-.5l-1.8-1.8a.4.4 0 0 0-.5.5zm15.1 1.3h2.9a.4.4 0 0 0 0-.8h-2.9a6.3 6.3 0 0 1-5.4-3.1c-.1-.2-.3-.3-.5-.1a.4.4 0 0 0-.2.5 7.1 7.1 0 0 0 6.1 3.5z"></path>
      <circle class="cls-8" cx="94.9" cy="382.8" r="2.3"></circle>
      <circle class="cls-29" cx="94.9" cy="382.8" r="1.5"></circle>
    </g>
    <g id="belt">
      <rect id="belt-2" data-name="belt" class="cls-32" x="77.3" y="334.6" width="47.6" height="4.49" rx=".4" transform="rotate(-180 101.1 336.9)"></rect>
      <path id="loop-2" class="cls-28" d="M84.6 334.6h2v4.49h-2z"></path>
      <path id="loop-1" class="cls-28" d="M115.6 334.6h2v4.49h-2z"></path>
      <g id="buckle">
        <path class="cls-32" d="M101.1 332.7a4.2 4.2 0 1 0 4.2 4.2 4.2 4.2 0 0 0-4.2-4.2z"></path>
        <path class="cls-33" d="M101.1 342.8a5.9 5.9 0 1 1 5.9-5.9 5.8 5.8 0 0 1-5.9 5.9zm0-10.1a4.2 4.2 0 1 0 4.2 4.2 4.2 4.2 0 0 0-4.2-4.2z"></path>
        <path class="cls-33" d="M102.7 337.7h-3.2a.8.8 0 0 1-.9-.8.9.9 0 0 1 .9-.9h3.2a.9.9 0 0 1 .9.9.8.8 0 0 1-.9.8z"></path>
      </g>
    </g>
  </g>
  <g id="big-eye">
    <circle class="cls-8" cx="116.4" cy="237.4" r="37.9"></circle>
    <circle class="cls-15" cx="129.2" cy="227.9" r="22.2"></circle>
    <circle class="cls-8" cx="139.8" cy="219.4" r="4.9"></circle>
  </g>
  <g id="tablet">
    <rect id="device" x="6.1" y="296" width="51" height="75.01" rx="4.4" transform="rotate(-11.3 31.736 334.353)" fill="#003"></rect>
    <path id="screen" transform="rotate(-11.3 31.736 334.353)" fill="#33f" d="M11.6 306.1h40.2v54.57H11.6z"></path>
    <circle id="home-button" cx="37.9" cy="365.2" r="2.1" fill="#71718d"></circle>
    <path id="_" data-name="?" class="cls-8" d="M27.5 330.4a8.5 8.5 0 0 0 1.6 0c2.1-.3 4.7-1.9 4.4-4.4a2.8 2.8 0 0 0-3.1-2.5 2.6 2.6 0 0 0-2.3 3.2l-7.6 1c-.7-5.8 4-9.6 9.3-10.3a10.3 10.3 0 0 1 7 1.6 8.6 8.6 0 0 1 4 6.1c.6 4.3-2.1 7.4-5.8 9.1l.3 2.7-6.9.9zm9.7 12.3a4.5 4.5 0 0 1-8.9 1.1 4.4 4.4 0 0 1 3.9-5 4.5 4.5 0 0 1 5 3.9z"></path>
  </g>
  <path class="cls-37" d="M158.6 229h-2.5v-1.4c-.4-16.1-6.5-30.6-17.1-40.9a54.2 54.2 0 0 0-37.9-15.3c-15 0-28.8 5.3-39 15.9S46.5 211.6 46 226.7v2.3h-2.5v-2a62 62 0 0 1 16.8-41.5c10.7-11 25.2-16.6 40.8-16.6a56.6 56.6 0 0 1 39.6 16c11.1 10.7 17.5 25.9 17.9 42.6z"></path>
  <path class="cls-38" d="M157 225.9h4.4v43.6H157a1.9 1.9 0 0 1-1.9-1.9v-39.8a1.9 1.9 0 0 1 1.9-1.9z" transform="rotate(-180 158.25 247.7)"></path>
  <path class="cls-39" d="M154.5 269.5h.6v-43.6h-.6a1.8 1.8 0 0 0-1.9 1.9v39.8a1.8 1.8 0 0 0 1.9 1.9z"></path>
  <path class="cls-40" d="M166.1 228.2h6.8v39.1h-6.8a4.7 4.7 0 0 1-4.7-4.7v-29.8a4.7 4.7 0 0 1 4.7-4.6z" transform="rotate(-180 167.15 247.7)"></path>
  <path class="cls-37" d="M177.3 245.3v4.8a9.4 9.4 0 0 1-4.4 7.9v-20.6a9.4 9.4 0 0 1 4.4 7.9z"></path>
  <path class="cls-18" d="M161.4 228.2h2.1v39.1h-2.1z"></path>
  <path class="cls-38" d="M42.7 225.9h4.4v43.6h-4.4a1.9 1.9 0 0 1-1.9-1.9v-39.8a1.9 1.9 0 0 1 1.9-1.9z"></path>
  <path class="cls-39" d="M47.7 269.5h-.6v-43.6h.6a1.8 1.8 0 0 1 1.9 1.9v39.8a1.8 1.8 0 0 1-1.9 1.9z"></path>
  <path class="cls-40" d="M34 228.2h6.8v39.1H34a4.7 4.7 0 0 1-4.7-4.7v-29.8a4.7 4.7 0 0 1 4.7-4.6z"></path>
  <path class="cls-37" d="M24.9 245.3v4.8a9.2 9.2 0 0 0 4.4 7.9v-20.6a9.2 9.2 0 0 0-4.4 7.9z"></path>
  <path class="cls-18" d="M38.7 228.2h2.1v39.1h-2.1z"></path>
  <path class="cls-39" d="M150.6 206.6a1 1 0 0 1-1.2-.6c-8-19.8-26.9-32.1-48.3-32.1a51.5 51.5 0 0 0-29.9 9.4 52.6 52.6 0 0 0-18.3 23.2.9.9 0 0 1-1.2.6l-5.2-2.1a.9.9 0 0 1-.6-1.2 60.2 60.2 0 0 1 21-26.6 58.8 58.8 0 0 1 34.2-10.7c24.5 0 46.1 14 55.3 36.8a.9.9 0 0 1-.6 1.2z"></path>
</svg>
