<?xml version="1.0"?>
<svg xmlns="http://www.w3.org/2000/svg" height="512px" viewBox="-28 0 464 464" width="512px"><g><path d="m152 120c17.648438 0 32-14.351562 32-32v-24c0-17.648438-14.351562-32-32-32s-32 14.351562-32 32v24c0 17.648438 14.351562 32 32 32zm0 0" data-original="#000000" class="active-path" data-old_color="#000000" fill="#FFFFFF"/><path d="m151.246094 135.960938-6.910156 69.0625 7.664062 7.664062 7.664062-7.664062-6.910156-69.0625c-.25.007812-.496094.039062-.753906.039062s-.503906-.03125-.753906-.039062zm0 0" data-original="#000000" class="active-path" data-old_color="#000000" fill="#FFFFFF"/><path d="m200 448h-128v16h224v-48h-96zm0 0" data-original="#000000" class="active-path" data-old_color="#000000" fill="#FFFFFF"/><path d="m360 16h-32v-16h-64v16h-32v24c0 13.230469 10.769531 24 24 24h12.449219c4.238281 7.273438 11.207031 12.695312 19.550781 14.863281v12.242188l-108.464844 36.152343c-3.375 2.375-7.0625 4.292969-11 5.742188l7.792969 77.976562-24.328125 24.335938-24.335938-24.335938 7.792969-77.976562c-3.929687-1.449219-7.625-3.375-11-5.742188l-116.871093-38.960937c-3.59375-1.191406-7.585938 1.671875-7.585938 5.472656v2.542969c0 1.992188 1.046875 3.863281 2.742188 4.910156l101.257812 62.304688v268.472656h32v-149.257812c0-10.335938 8.40625-18.742188 18.742188-18.742188 5.832031 0 11.21875 2.640625 14.800781 7.238281l54.457031 70.019531v58.742188h32v-69.910156c0-4.953125-1.503906-9.714844-4.335938-13.761719l-51.664062-73.808594v-78.992187l88-54.152344v26.625h-16v16h48v-16h-16v-57.136719c8.34375-2.167969 15.304688-7.589843 19.550781-14.863281h12.449219c13.230469 0 24-10.769531 24-24zm-104 32c-4.40625 0-8-3.59375-8-8v-8h16v16zm88-8c0 4.40625-3.59375 8-8 8h-8v-16h16zm0 0" data-original="#000000" class="active-path" data-old_color="#000000" fill="#FFFFFF"/><path d="m376 80h16v16h-16zm0 0" data-original="#000000" class="active-path" data-old_color="#000000" fill="#FFFFFF"/><path d="m360 96h16v16h-16zm0 0" data-original="#000000" class="active-path" data-old_color="#000000" fill="#FFFFFF"/><path d="m376 112h16v16h-16zm0 0" data-original="#000000" class="active-path" data-old_color="#000000" fill="#FFFFFF"/><path d="m392 96h16v16h-16zm0 0" data-original="#000000" class="active-path" data-old_color="#000000" fill="#FFFFFF"/><path d="m16 184h16v16h-16zm0 0" data-original="#000000" class="active-path" data-old_color="#000000" fill="#FFFFFF"/><path d="m0 200h16v16h-16zm0 0" data-original="#000000" class="active-path" data-old_color="#000000" fill="#FFFFFF"/><path d="m16 216h16v16h-16zm0 0" data-original="#000000" class="active-path" data-old_color="#000000" fill="#FFFFFF"/><path d="m32 200h16v16h-16zm0 0" data-original="#000000" class="active-path" data-old_color="#000000" fill="#FFFFFF"/><path d="m48 0h16v16h-16zm0 0" data-original="#000000" class="active-path" data-old_color="#000000" fill="#FFFFFF"/><path d="m32 16h16v16h-16zm0 0" data-original="#000000" class="active-path" data-old_color="#000000" fill="#FFFFFF"/><path d="m48 32h16v16h-16zm0 0" data-original="#000000" class="active-path" data-old_color="#000000" fill="#FFFFFF"/><path d="m64 16h16v16h-16zm0 0" data-original="#000000" class="active-path" data-old_color="#000000" fill="#FFFFFF"/></g> </svg>
